<?xml version="1.0" standalone="no"?>
<!DOCTYPE svg PUBLIC "-//W3C//DTD SVG 20010904//EN"
 "http://www.w3.org/TR/2001/REC-SVG-20010904/DTD/svg10.dtd">
<svg version="1.0" xmlns="http://www.w3.org/2000/svg"
 width="2810.000000pt" height="1497.000000pt" viewBox="0 0 2810.000000 1497.000000"
 preserveAspectRatio="xMidYMid meet">

<g transform="translate(0.000000,1497.000000) scale(0.100000,-0.100000)"
fill="#000000" stroke="none">
<path d="M16823 14961 c-51 -13 -96 -44 -128 -90 l-30 -43 -5 -1014 -5 -1014
-620 -4 c-681 -3 -730 -7 -975 -67 -670 -165 -1059 -627 -1140 -1354 -6 -55
-10 -568 -10 -1332 0 -1325 1 -1347 50 -1556 44 -190 127 -386 227 -536 74
-110 240 -282 348 -359 223 -158 513 -264 835 -304 147 -18 1336 -18 1465 0
245 35 433 87 601 166 493 234 786 687 844 1306 8 80 10 1022 8 3095 l-3 2980
-25 44 c-16 28 -39 52 -65 65 -39 21 -52 21 -690 23 -357 1 -664 -2 -682 -6z
m-610 -3166 c196 -41 357 -190 420 -390 l22 -70 0 -1300 0 -1300 -22 -70 c-76
-240 -294 -404 -539 -405 -71 0 -196 34 -263 72 -75 43 -179 149 -218 224 -66
125 -63 46 -63 1479 0 1433 -3 1354 63 1479 39 75 143 181 219 224 68 39 183
71 258 71 30 0 86 -6 123 -14z"/>
<path d="M3782 14080 c-296 -78 -507 -323 -542 -630 -6 -48 -10 -405 -10 -815
l0 -730 -552 552 c-384 382 -572 564 -616 592 -115 73 -308 120 -436 106 -278
-30 -490 -175 -602 -410 -53 -111 -69 -184 -69 -320 0 -139 20 -217 88 -350
39 -76 66 -106 594 -635 304 -306 553 -559 553 -563 0 -4 -350 -7 -778 -7
-742 0 -782 -1 -856 -20 -209 -53 -383 -194 -476 -385 -53 -108 -73 -197 -73
-325 -1 -278 157 -530 408 -650 161 -77 117 -73 994 -78 l785 -3 363 363 c200
200 363 368 363 374 0 7 -163 172 -361 368 l-361 356 516 0 516 0 0 308 c0
170 3 404 7 521 l6 213 361 -361 361 -361 355 355 c195 195 358 355 362 355 5
0 8 -232 8 -515 l0 -515 518 0 518 0 550 553 c592 593 605 609 659 764 131
378 -67 792 -441 926 -218 78 -468 46 -661 -84 -26 -17 -294 -277 -595 -577
l-547 -546 -3 810 -3 809 -24 65 c-46 129 -91 200 -186 295 -103 104 -202 162
-331 195 -102 26 -261 26 -362 0z"/>
<path d="M10544 12789 c-471 -34 -837 -182 -1099 -444 -114 -114 -183 -209
-255 -354 -120 -240 -182 -527 -184 -856 -1 -149 1 -163 22 -207 13 -27 42
-64 65 -83 76 -66 88 -67 639 -62 543 4 548 4 671 69 103 55 160 140 192 288
67 301 155 479 286 575 91 67 153 87 294 92 329 14 530 -112 576 -361 12 -67
-1 -230 -27 -328 -49 -190 -241 -422 -444 -535 -175 -98 -494 -179 -1034 -263
-296 -46 -400 -68 -541 -117 -294 -102 -496 -265 -605 -489 -88 -179 -104
-312 -97 -807 3 -281 9 -395 21 -467 56 -324 154 -529 346 -721 238 -240 532
-366 1002 -426 114 -15 229 -17 803 -18 700 0 727 1 955 46 617 122 1044 525
1195 1129 61 244 60 206 60 1585 0 974 -3 1282 -13 1355 -82 601 -337 991
-795 1215 -217 106 -445 162 -747 185 -156 12 -1122 11 -1286 -1z m1108 -2944
c28 -20 53 -49 71 -85 l28 -55 -3 -505 -3 -505 -28 -69 c-35 -89 -105 -186
-170 -238 -233 -185 -545 -164 -749 50 -64 67 -98 123 -129 212 -21 61 -23 85
-27 351 -4 325 2 374 63 466 46 70 113 118 280 201 111 55 366 170 455 205 8
4 50 5 92 4 67 -2 82 -6 120 -32z"/>
<path d="M20352 12789 c-314 -23 -613 -106 -817 -225 -339 -198 -557 -497
-659 -902 -62 -245 -60 -193 -64 -1537 -2 -857 0 -1268 8 -1355 67 -749 501
-1270 1193 -1435 244 -58 277 -60 982 -60 678 0 724 2 940 46 700 142 1143
627 1240 1358 22 165 22 2560 0 2728 -53 404 -188 704 -421 937 -237 237 -549
375 -989 437 -99 14 -1251 21 -1413 8z m819 -1008 c165 -51 309 -197 362 -366
l22 -70 0 -1310 0 -1310 -22 -70 c-85 -270 -369 -439 -641 -381 -201 42 -361
189 -425 391 l-22 70 0 1300 c0 1233 1 1303 18 1359 64 205 221 356 420 401
80 19 202 12 288 -14z"/>
<path d="M25245 12789 c-584 -47 -1010 -266 -1261 -649 -107 -164 -177 -336
-222 -550 -48 -224 -47 -178 -47 -2235 l0 -1941 25 -48 c18 -35 37 -55 65 -70
39 -21 53 -21 680 -24 461 -2 655 0 694 8 73 16 135 73 156 143 13 44 15 293
15 1977 0 1689 2 1933 15 1985 67 262 322 446 585 421 219 -20 406 -171 481
-386 21 -60 23 -90 29 -375 8 -330 10 -349 62 -448 55 -103 169 -183 297 -207
74 -14 1073 -13 1125 1 21 6 58 29 82 51 75 69 77 89 71 517 -7 442 -24 584
-98 813 -162 500 -521 824 -1061 957 -240 60 -293 63 -968 66 -338 2 -664 -1
-725 -6z"/>
<path d="M5392 10500 l-363 -366 370 -363 370 -362 768 3 c763 4 768 4 843 27
216 65 376 197 470 388 99 200 94 449 -11 656 -59 114 -190 245 -306 305 -163
85 -133 82 -1007 80 l-771 -1 -363 -367z"/>
<path d="M4710 8887 l0 -523 548 -544 c394 -393 563 -555 604 -579 331 -193
723 -124 958 168 187 232 207 584 49 833 -28 44 -210 232 -592 616 l-552 552
-507 0 -508 0 0 -523z"/>
<path d="M2435 9393 l-261 -3 -530 -533 c-292 -292 -545 -552 -561 -577 -46
-68 -79 -137 -104 -220 -34 -107 -34 -292 0 -400 64 -209 189 -358 376 -450
117 -58 189 -75 325 -74 164 0 286 37 420 127 25 16 289 273 587 570 l542 540
4 -784 c4 -868 1 -834 71 -982 131 -283 436 -455 739 -417 258 32 457 173 573
405 75 152 74 131 74 1011 l0 782 -362 357 -361 357 -176 -174 c-97 -95 -263
-258 -368 -363 l-193 -190 0 513 0 512 -267 -2 c-148 -2 -385 -4 -528 -5z"/>
<path d="M26310 4543 c0 -10 -77 -439 -85 -470 -5 -21 -2 -23 39 -23 51 0 46
-11 71 158 10 62 20 110 24 107 3 -4 34 -66 67 -138 34 -73 68 -133 76 -135
10 -2 33 39 73 130 32 73 62 137 66 141 4 5 12 -24 19 -65 6 -40 16 -101 22
-135 l10 -63 44 0 c42 0 43 1 38 28 -3 15 -22 126 -42 246 -24 136 -43 221
-50 224 -8 2 -43 -61 -94 -167 -45 -94 -84 -171 -87 -171 -4 0 -41 75 -83 168
-45 98 -83 168 -92 170 -9 2 -16 0 -16 -5z"/>
<path d="M25850 4500 l0 -40 60 0 60 0 2 -202 3 -203 43 -3 42 -3 0 205 0 205
63 3 62 3 0 35 0 35 -167 3 -168 2 0 -40z"/>
<path d="M16115 4146 c-205 -39 -369 -162 -455 -341 -75 -154 -90 -266 -90
-647 l0 -278 -115 0 c-156 0 -155 1 -155 -163 0 -170 -3 -167 151 -167 l119 0
0 -620 c0 -657 1 -667 45 -684 31 -12 299 -6 316 7 38 29 39 39 39 676 l0 621
238 0 c130 0 242 4 248 8 26 17 34 56 34 160 0 95 -3 113 -21 136 l-20 26
-240 0 -239 0 0 313 c0 230 4 325 14 362 42 158 126 237 264 251 75 8 150 -13
260 -72 46 -25 94 -44 105 -42 28 4 147 209 147 252 0 20 -11 38 -37 62 -45
41 -177 107 -258 129 -82 22 -262 28 -350 11z"/>
<path d="M25056 4099 l-26 -20 0 -620 c0 -340 -4 -619 -8 -619 -5 0 -42 12
-83 26 -258 89 -503 69 -716 -57 -74 -44 -184 -148 -239 -225 -201 -282 -215
-698 -33 -1008 58 -99 203 -241 294 -288 125 -65 202 -83 350 -83 115 1 139 4
209 28 93 33 193 89 258 146 25 23 48 41 51 41 3 0 11 -25 18 -56 7 -31 22
-71 34 -88 20 -30 23 -31 105 -34 100 -3 126 7 141 57 7 24 9 484 7 1404 l-3
1369 -28 24 c-27 23 -35 24 -166 24 -125 0 -141 -2 -165 -21z m-196 -1554 c30
-9 81 -28 113 -42 l57 -26 0 -346 c0 -328 -1 -348 -20 -376 -40 -60 -126 -136
-190 -168 -61 -30 -70 -32 -180 -32 -104 0 -120 3 -173 27 -69 33 -161 122
-200 195 -38 71 -67 192 -67 279 0 237 122 419 328 491 59 21 80 23 172 19 58
-2 130 -12 160 -21z"/>
<path d="M21055 4031 c-51 -13 -91 -39 -127 -81 -103 -119 -63 -302 80 -367
181 -84 376 88 322 282 -31 111 -167 193 -275 166z"/>
<path d="M3930 2899 c-94 -24 -200 -76 -264 -129 -26 -22 -52 -40 -56 -40 -5
0 -16 22 -25 49 -9 28 -25 61 -36 75 -19 24 -26 26 -108 26 -74 0 -93 -3 -115
-21 l-26 -20 0 -1398 0 -1398 21 -19 c19 -17 38 -19 176 -19 151 0 155 1 174
24 18 22 19 48 19 648 0 496 3 624 13 620 208 -92 367 -116 541 -83 147 29
268 92 383 200 195 183 292 454 263 736 -48 456 -369 771 -785 769 -65 0 -126
-7 -175 -20z m314 -367 c157 -74 254 -224 272 -426 20 -219 -95 -430 -283
-519 -65 -31 -73 -32 -193 -32 -138 0 -205 16 -307 75 l-53 30 0 336 c0 370
-2 359 66 434 46 50 120 98 192 121 89 30 219 22 306 -19z"/>
<path d="M5845 2904 c-86 -19 -202 -67 -276 -117 -72 -47 -194 -176 -237 -249
-89 -150 -127 -297 -126 -483 1 -158 24 -266 88 -399 145 -307 437 -473 795
-453 133 8 250 37 367 92 101 47 200 116 209 146 7 22 11 16 -77 141 -38 53
-77 100 -88 103 -12 4 -55 -13 -123 -49 -251 -135 -470 -126 -642 26 -78 69
-147 197 -157 290 l-3 33 582 5 c425 4 585 8 594 17 29 29 37 188 15 305 -59
307 -276 530 -579 592 -94 20 -249 19 -342 0z m328 -328 c109 -52 205 -178
223 -293 l7 -43 -403 0 -403 0 6 41 c13 98 111 230 208 280 79 40 120 49 214
46 74 -3 100 -8 148 -31z"/>
<path d="M7572 2904 c-99 -14 -257 -53 -316 -78 -56 -24 -61 -45 -32 -164 13
-57 32 -112 42 -123 22 -25 41 -23 199 15 61 14 162 31 225 37 231 23 321 -29
349 -201 11 -66 15 -160 7 -160 -3 0 -34 7 -69 15 -246 57 -504 29 -676 -72
-166 -99 -254 -279 -237 -484 17 -200 110 -350 266 -429 209 -106 496 -67 705
94 32 26 62 43 66 39 4 -5 19 -37 33 -72 15 -36 32 -68 39 -73 6 -4 49 -8 95
-8 75 0 85 2 108 25 l25 26 -4 587 c-4 504 -6 597 -21 657 -51 214 -169 332
-369 370 -97 18 -306 18 -435 -1z m350 -899 c34 -9 75 -23 90 -31 l28 -15 0
-140 0 -141 -57 -54 c-103 -99 -260 -157 -364 -135 -123 27 -199 127 -199 265
0 136 89 233 243 266 56 12 182 5 259 -15z"/>
<path d="M9495 2904 c-281 -62 -526 -269 -626 -529 -50 -128 -61 -202 -56
-355 4 -115 9 -148 34 -227 123 -375 472 -613 866 -590 249 14 438 124 580
337 37 55 21 83 -102 178 -77 61 -96 58 -189 -29 -44 -40 -105 -84 -142 -102
-62 -31 -69 -32 -190 -32 -125 0 -126 0 -202 37 -130 65 -225 187 -264 340
-22 86 -15 231 16 311 71 187 232 311 420 324 128 9 229 -30 341 -133 84 -77
94 -75 209 35 88 83 93 90 87 120 -9 42 -65 110 -141 170 -83 65 -137 95 -231
127 -67 23 -101 27 -210 30 -92 3 -151 -1 -200 -12z"/>
<path d="M11250 2905 c-301 -62 -531 -283 -622 -600 -20 -70 -23 -101 -22
-250 0 -155 3 -178 27 -258 74 -240 210 -408 414 -510 198 -100 458 -114 697
-36 159 51 316 153 316 205 0 24 -116 192 -154 223 -16 13 -30 8 -139 -48
-129 -65 -216 -91 -317 -91 -217 -1 -421 163 -464 373 -7 34 -11 65 -9 70 2 4
262 7 578 7 622 0 598 -2 609 53 32 156 -9 380 -95 523 -76 125 -209 240 -344
297 -130 54 -328 72 -475 42z m275 -310 c114 -34 217 -141 255 -263 11 -35 20
-70 20 -78 0 -12 -65 -14 -401 -14 l-402 0 6 39 c13 97 95 216 186 269 104 61
232 79 336 47z"/>
<path d="M14021 2905 c-313 -72 -561 -326 -638 -652 -26 -112 -23 -290 6 -402
106 -406 459 -673 854 -648 566 36 928 636 716 1187 -40 106 -114 213 -207
302 -96 92 -187 147 -312 189 -84 28 -110 32 -225 35 -89 2 -150 -1 -194 -11z
m298 -354 c201 -63 341 -262 341 -486 -1 -205 -108 -389 -277 -472 -67 -33
-86 -38 -168 -41 -70 -3 -106 0 -146 13 -204 67 -341 263 -343 490 0 100 16
171 63 260 60 116 183 217 297 244 67 16 168 12 233 -8z"/>
<path d="M18425 2905 c-124 -27 -237 -83 -336 -166 -28 -23 -51 -40 -53 -38
-2 2 -13 36 -26 74 -33 102 -37 105 -142 105 -81 0 -91 -2 -113 -25 l-25 -24
0 -771 0 -771 25 -24 c23 -24 29 -25 163 -25 126 0 142 2 166 21 l26 20 0 518
0 518 31 46 c60 91 177 171 287 197 73 17 195 9 253 -17 96 -43 163 -132 188
-251 7 -35 11 -217 11 -528 l0 -475 25 -24 c23 -24 29 -25 160 -25 132 0 137
1 161 25 l25 25 -2 542 -2 542 56 52 c65 61 173 118 254 134 80 17 197 8 258
-19 95 -42 161 -135 185 -261 6 -30 10 -252 10 -522 l0 -469 25 -24 c23 -24
29 -25 165 -25 136 0 142 1 165 25 l25 24 0 453 c0 580 -11 676 -91 846 -104
217 -305 332 -582 332 -103 0 -202 -21 -308 -65 -66 -28 -197 -111 -258 -163
l-34 -29 -70 74 c-119 125 -269 183 -467 182 -52 0 -122 -7 -155 -14z"/>
<path d="M22560 2904 c-124 -26 -258 -89 -348 -162 -30 -24 -55 -42 -58 -40
-2 2 -15 35 -30 74 -38 102 -41 104 -144 104 -72 0 -92 -4 -111 -19 l-24 -19
-3 -759 c-1 -417 0 -768 3 -781 3 -12 14 -31 25 -42 18 -18 34 -20 164 -20
127 0 147 2 167 19 l24 19 3 533 3 532 63 62 c73 71 191 136 283 155 31 7 92
10 134 8 127 -7 216 -63 270 -169 44 -88 49 -145 49 -642 l0 -468 25 -24 c23
-24 28 -25 170 -25 131 0 147 2 165 20 11 11 22 31 26 44 3 13 4 244 1 513 -5
515 -8 547 -56 686 -76 217 -236 358 -453 402 -94 18 -260 18 -348 -1z"/>
<path d="M20942 2857 l-22 -23 0 -776 0 -777 26 -20 c24 -19 40 -21 166 -21
134 0 140 1 163 25 l25 24 0 771 0 771 -25 24 c-23 24 -29 25 -168 25 -137 0
-144 -1 -165 -23z"/>
</g>
</svg>
