<?xml version="1.0" standalone="no"?>
<!DOCTYPE svg PUBLIC "-//W3C//DTD SVG 20010904//EN"
 "http://www.w3.org/TR/2001/REC-SVG-20010904/DTD/svg10.dtd">
<svg version="1.0" xmlns="http://www.w3.org/2000/svg"
 width="3000.000000pt" height="2000.000000pt" viewBox="0 0 3000.000000 2000.000000"
 preserveAspectRatio="xMidYMid meet">

<g transform="translate(0.000000,2000.000000) scale(0.100000,-0.100000)"
fill="#000000" stroke="none">
<path d="M6446 12430 c-1144 -75 -2142 -578 -2648 -1334 -395 -591 -442 -1271
-129 -1901 249 -504 683 -919 1276 -1220 820 -417 1827 -523 2756 -290 935
235 1704 794 2054 1493 276 552 284 1127 21 1667 -409 842 -1418 1445 -2626
1569 -183 19 -535 27 -704 16z m679 -185 c210 -25 602 -112 655 -145 18 -11
-43 -76 -308 -326 -127 -119 -189 -170 -230 -190 -89 -42 -154 -87 -232 -160
-90 -85 -153 -173 -182 -253 -12 -33 -24 -61 -27 -61 -4 0 -17 30 -31 67 -38
102 -101 201 -180 286 -89 95 -170 157 -269 204 -56 27 -108 66 -201 148 -69
61 -174 153 -235 204 -122 102 -111 99 -226 65 l-53 -16 60 -56 c32 -32 103
-98 157 -149 53 -50 97 -98 97 -106 0 -8 -11 -22 -24 -30 -13 -9 -26 -24 -28
-35 -5 -18 2 -20 76 -25 127 -8 222 -54 378 -184 103 -86 197 -205 262 -333
65 -127 99 -231 126 -387 11 -65 46 -257 79 -428 58 -305 60 -312 109 -407 68
-132 103 -186 127 -194 10 -4 69 -55 130 -114 60 -59 119 -110 130 -113 11 -4
66 -13 122 -21 56 -9 122 -25 147 -37 53 -25 106 -80 107 -112 0 -18 4 -15 16
13 20 46 13 120 -16 156 -46 59 -157 110 -264 121 -36 4 -66 13 -74 22 -7 9
-28 34 -46 55 -17 22 -63 65 -100 96 l-68 56 -59 149 c-33 82 -66 185 -75 230
-8 44 -22 114 -30 155 -8 41 -24 134 -35 207 l-19 132 24 108 c28 126 50 186
111 304 112 217 286 344 562 412 184 46 208 71 92 101 l-71 19 17 26 c10 14
45 51 78 81 34 30 107 99 163 153 87 85 104 98 125 92 55 -17 300 -140 412
-207 155 -93 333 -227 452 -341 52 -49 94 -92 94 -96 0 -10 -127 -72 -179 -88
-71 -21 -108 -17 -151 17 -32 25 -47 30 -94 30 l-56 0 47 -57 c62 -77 108
-150 133 -212 11 -28 29 -75 41 -103 11 -29 25 -58 29 -63 13 -16 86 -280 114
-413 14 -64 32 -183 42 -263 l17 -146 -26 -64 c-38 -96 -179 -505 -227 -659
-31 -97 -52 -145 -74 -172 -17 -20 -65 -76 -107 -126 -97 -113 -194 -260 -255
-384 -27 -54 -54 -98 -60 -98 -22 0 -82 78 -103 134 -22 61 -30 172 -16 236
13 60 55 131 105 179 l49 47 -2 109 c-1 157 33 274 97 336 14 13 26 29 26 34
0 6 -19 24 -41 40 -53 39 -130 123 -180 197 -110 162 -199 424 -199 591 l0 48
-29 -16 c-37 -19 -46 -65 -45 -220 3 -234 89 -470 226 -620 l50 -55 -25 -52
c-38 -82 -50 -144 -52 -259 l-1 -107 -37 -41 c-70 -77 -117 -201 -117 -306 0
-51 -4 -66 -28 -95 -15 -19 -33 -46 -40 -60 -25 -50 -169 -206 -237 -257 -182
-138 -459 -225 -800 -253 -71 -5 -154 -6 -205 -1 -77 8 -87 12 -113 41 -23 26
-28 38 -23 63 4 17 11 36 16 41 5 5 85 10 177 12 170 2 254 11 375 40 56 13
72 22 94 51 l26 34 -64 -8 c-245 -31 -631 27 -865 130 -201 88 -291 168 -500
442 -51 68 -62 89 -68 135 -12 93 -41 153 -97 205 l-50 48 13 56 c19 81 15
215 -9 286 l-20 59 26 20 c155 116 228 280 188 420 -16 52 -52 106 -73 106 -4
0 -8 -33 -8 -73 -1 -59 -6 -83 -30 -132 -38 -75 -144 -183 -246 -250 -101 -65
-109 -78 -69 -112 38 -32 64 -82 79 -151 13 -62 14 -168 2 -230 -8 -42 -8 -44
35 -79 126 -106 139 -360 26 -508 -46 -61 -79 -67 -96 -19 -6 16 -21 43 -32
60 -12 16 -47 80 -78 143 -73 145 -146 263 -245 394 l-79 105 -26 178 c-27
188 -87 501 -111 581 -38 125 4 359 109 607 24 55 65 155 90 221 46 117 50
122 129 199 45 44 99 92 120 107 l38 28 -33 6 c-34 6 -55 1 -223 -59 -55 -20
-117 -36 -138 -36 -38 0 -107 30 -180 78 l-38 26 -67 -68 -67 -68 25 -16 c27
-19 201 -149 239 -180 l23 -19 -35 -89 c-172 -434 -197 -510 -204 -614 -5 -80
6 -146 120 -707 l54 -261 48 -54 c118 -130 253 -337 395 -601 92 -173 106
-187 183 -187 37 0 55 8 104 43 70 52 127 116 156 175 12 23 24 42 28 42 5 0
20 -16 34 -35 l27 -35 -21 -43 c-28 -57 -36 -126 -21 -171 26 -79 131 -142
226 -134 44 3 44 3 39 -24 -10 -45 12 -103 54 -141 58 -52 115 -70 208 -65 43
3 86 8 95 12 12 6 21 0 32 -23 37 -71 98 -103 237 -126 293 -47 747 26 1019
166 162 83 301 200 389 327 12 17 25 32 29 32 4 0 19 -20 33 -44 34 -56 115
-120 178 -141 47 -15 53 -15 86 1 31 14 44 33 91 128 71 142 196 329 321 479
54 66 106 129 115 140 10 12 58 128 106 257 49 129 107 278 129 330 91 214
108 311 93 538 -10 153 -27 262 -59 372 -28 99 -87 244 -127 315 -23 42 -33
72 -29 84 7 24 60 72 149 135 53 39 72 47 85 39 28 -17 168 -231 226 -344 101
-198 169 -415 195 -622 19 -153 8 -432 -24 -582 -136 -643 -588 -1204 -1266
-1572 -709 -384 -1614 -477 -2410 -248 -403 116 -806 327 -1105 578 -641 539
-928 1283 -769 1996 35 154 73 261 149 416 155 317 381 582 701 821 425 317
988 529 1550 584 60 5 127 12 149 14 88 9 518 -4 640 -19z m-1312 -3635 l78
-65 -46 -3 c-89 -6 -164 54 -151 122 8 42 0 46 119 -54z m238 -156 c14 -7 72
-27 129 -44 57 -16 106 -32 108 -34 9 -10 -134 -46 -183 -46 -88 0 -148 57
-131 124 7 29 20 29 77 0z"/>
<path d="M6675 9990 c-19 -43 -60 -83 -115 -113 -18 -10 -30 -23 -27 -30 7
-20 223 -323 279 -392 49 -61 46 -59 348 -236 61 -35 73 -39 202 -52 117 -12
147 -18 195 -44 69 -35 106 -93 101 -155 -3 -31 -1 -35 11 -25 24 20 51 90 51
135 0 76 -55 152 -132 181 -14 5 -82 19 -150 31 -106 19 -131 27 -183 60 -33
21 -112 64 -175 96 l-115 57 -125 192 c-121 186 -125 195 -132 260 -3 37 -8
69 -11 71 -2 2 -12 -14 -22 -36z"/>
<path d="M6365 9729 c-27 -37 -110 -99 -131 -99 -6 0 -15 -5 -21 -11 -8 -8 32
-69 153 -230 90 -121 170 -232 178 -247 12 -24 45 -42 183 -101 92 -40 197
-90 233 -111 l65 -38 145 -5 c166 -6 215 -19 280 -74 l42 -37 -4 -68 -5 -69
28 27 c62 59 86 153 54 213 -44 86 -200 141 -396 141 -50 0 -68 5 -102 29 -61
42 -232 125 -309 150 -63 21 -69 25 -108 86 -23 36 -89 127 -147 202 -95 126
-104 141 -100 173 3 20 2 52 -2 72 l-6 37 -30 -40z"/>
<path d="M6037 9532 c-26 -29 -123 -78 -192 -97 -33 -10 -61 -19 -63 -20 -8
-7 355 -471 399 -511 13 -12 110 -65 214 -119 105 -53 211 -108 236 -122 43
-23 51 -24 135 -16 131 12 320 1 367 -22 43 -20 68 -52 71 -90 2 -34 10 -32
43 11 19 26 28 49 28 76 0 34 -7 46 -42 78 -65 62 -144 81 -343 87 l-165 5
-85 48 c-143 80 -223 119 -276 135 -48 14 -53 19 -126 127 -42 62 -98 140
-125 173 -27 33 -59 75 -72 94 l-24 33 22 64 c26 71 25 96 -2 66z"/>
<path d="M11475 9953 c-544 -835 -997 -1530 -1008 -1546 l-19 -27 348 2 347 3
251 397 251 397 578 1 577 0 0 -400 0 -400 325 0 325 0 -2 1543 -3 1542 -491
3 -491 2 -988 -1517z m1322 -240 c-2 -2 -182 -2 -401 -1 l-396 3 57 85 c52 78
413 634 643 992 l95 147 3 -611 c1 -336 1 -613 -1 -615z"/>
<path d="M13860 9925 l0 -1545 330 0 330 0 0 1545 0 1545 -330 0 -330 0 0
-1545z"/>
<path d="M15000 9925 l0 -1545 325 0 325 0 -2 1543 -3 1542 -322 3 -323 2 0
-1545z"/>
<path d="M18290 11100 l0 -370 -160 0 -160 0 0 -245 0 -245 160 0 160 0 0
-597 c0 -341 5 -636 10 -687 34 -294 183 -467 469 -544 88 -23 114 -25 306
-26 172 -1 227 3 303 18 77 17 92 23 92 39 0 25 -69 480 -74 484 -2 2 -43 -1
-92 -7 -199 -25 -325 17 -375 125 -17 37 -19 77 -19 618 l0 577 235 0 235 0 0
245 0 245 -235 0 -235 0 0 370 0 370 -310 0 -310 0 0 -370z"/>
<path d="M22190 11100 l0 -370 -165 0 -165 0 0 -245 0 -245 165 0 164 0 3
-682 3 -683 28 -82 c52 -154 141 -257 282 -324 147 -71 294 -95 515 -85 174 7
346 36 343 57 -1 8 -21 121 -44 252 l-43 238 -60 -8 c-85 -11 -209 -8 -261 7
-24 7 -62 28 -84 46 -72 62 -71 55 -71 696 l0 568 229 0 229 0 6 143 c3 78 7
188 9 245 l3 102 -238 0 -238 0 0 370 0 370 -305 0 -305 0 0 -370z"/>
<path d="M16770 10769 c-198 -17 -408 -94 -535 -196 -76 -61 -153 -175 -186
-273 -21 -67 -24 -92 -23 -225 1 -134 4 -159 28 -232 83 -253 268 -370 791
-498 325 -80 392 -117 424 -230 32 -118 -12 -213 -118 -251 -77 -28 -300 -31
-446 -6 -199 34 -429 120 -579 216 -32 20 -60 36 -61 34 -2 -2 -22 -105 -44
-228 -23 -124 -43 -235 -46 -247 -5 -20 5 -28 74 -62 172 -87 429 -158 660
-182 138 -14 402 -7 521 15 335 61 534 224 607 496 25 91 24 329 -1 420 -53
194 -174 316 -404 408 -79 31 -174 59 -512 153 -128 35 -232 78 -269 112 -80
74 -63 205 37 268 66 42 113 53 227 52 180 -1 420 -63 631 -162 l101 -48 43
241 c23 133 45 246 47 253 5 14 -123 64 -250 98 -132 36 -294 64 -406 70 -53
3 -123 7 -156 9 -33 2 -103 0 -155 -5z"/>
<path d="M20640 10773 c-124 -4 -267 -23 -415 -54 -137 -29 -403 -104 -417
-117 -8 -8 61 -473 72 -485 4 -5 36 4 71 18 290 120 539 174 748 162 216 -12
320 -101 329 -284 l4 -81 -48 -7 c-308 -40 -489 -77 -665 -135 -449 -149 -670
-406 -669 -782 1 -256 110 -448 311 -547 115 -57 173 -71 320 -78 270 -12 495
58 714 223 l83 62 23 -121 24 -122 268 -3 268 -2 -3 882 c-3 869 -4 884 -25
959 -83 294 -289 452 -648 498 -91 11 -234 17 -345 14z m390 -1468 l0 -255
-57 -45 c-165 -129 -402 -196 -544 -153 -56 16 -114 70 -135 123 -23 62 -16
183 15 243 67 131 227 235 451 293 91 23 210 47 248 48 l22 1 0 -255z"/>
<path d="M24408 10769 c-290 -24 -551 -159 -708 -366 -105 -139 -183 -332
-216 -538 -24 -149 -24 -422 0 -560 90 -516 413 -837 916 -911 233 -34 528 -6
769 72 112 36 306 128 355 167 l28 23 -38 237 -39 238 -75 -47 c-121 -75 -308
-161 -410 -189 -145 -39 -313 -51 -423 -32 -159 28 -284 105 -362 223 -41 61
-89 185 -99 254 -4 25 -9 57 -12 73 l-6 27 731 0 731 0 7 28 c15 55 6 342 -16
462 -79 453 -299 713 -685 810 -63 16 -323 45 -346 39 -3 -1 -49 -5 -102 -10z
m197 -430 c195 -36 308 -187 331 -445 l7 -74 -427 0 -427 0 7 48 c39 267 161
435 344 471 64 13 98 13 165 0z"/>
<path d="M26179 8866 c-98 -35 -150 -108 -157 -222 -4 -65 -2 -80 23 -129 47
-96 137 -142 258 -133 114 9 193 71 223 174 36 123 -19 248 -131 300 -57 27
-156 32 -216 10z m199 -31 c99 -42 152 -162 122 -275 -15 -55 -82 -124 -137
-139 -59 -17 -143 -13 -189 8 -150 68 -152 324 -4 399 53 27 152 30 208 7z"/>
<path d="M26190 8641 c0 -134 1 -141 20 -141 18 0 20 7 20 55 0 41 4 55 14 55
8 0 36 -25 62 -55 32 -37 55 -55 71 -55 22 0 22 1 -12 55 -19 30 -35 57 -35
61 0 3 11 15 26 26 20 16 24 28 22 56 -4 50 -39 73 -122 79 l-66 6 0 -142z
m128 60 c5 -30 -20 -51 -60 -51 -26 0 -28 3 -28 41 l0 40 43 -3 c36 -3 42 -6
45 -27z"/>
</g>
</svg>
