<?xml version="1.0" standalone="no"?>
<!DOCTYPE svg PUBLIC "-//W3C//DTD SVG 20010904//EN"
 "http://www.w3.org/TR/2001/REC-SVG-20010904/DTD/svg10.dtd">
<svg version="1.0" xmlns="http://www.w3.org/2000/svg"
 width="494.000000pt" height="102.000000pt" viewBox="0 0 494.000000 102.000000"
 preserveAspectRatio="xMidYMid meet">
<metadata>
Created by potrace 1.16, written by Peter Selinger 2001-2019
</metadata>
<g transform="translate(0.000000,102.000000) scale(0.100000,-0.100000)"
fill="#000000" stroke="none">
<path d="M26 879 c-4 -74 -9 -173 -13 -221 l-6 -88 97 0 c145 0 203 34 213
125 5 42 3 48 -28 77 l-34 31 33 33 c34 34 41 73 21 117 -17 38 -55 50 -170
55 l-106 4 -7 -133z m184 -129 c15 -8 20 -21 20 -50 0 -35 -5 -43 -32 -60 -33
-20 -92 -27 -101 -12 -3 4 -3 38 0 76 l6 68 44 -6 c24 -3 53 -10 63 -16z"/>
<path d="M435 998 c-2 -7 -6 -71 -9 -143 -4 -71 -9 -165 -13 -207 l-6 -78 40
0 c39 0 41 1 47 38 3 20 6 63 6 95 0 35 4 56 10 52 5 -3 31 -46 57 -95 l48
-90 48 0 c26 0 47 2 47 5 0 2 -25 45 -55 95 -30 50 -55 93 -55 95 0 2 16 12
36 21 100 48 97 185 -4 214 -54 15 -192 13 -197 -2z"/>
<path d="M817 1003 c-3 -5 -7 -69 -11 -143 -4 -74 -9 -170 -13 -212 l-6 -78
121 0 c116 0 120 1 126 23 3 12 6 25 6 30 0 4 -39 7 -86 7 -74 0 -85 2 -80 16
3 9 6 40 6 70 l0 54 80 0 c79 0 80 0 80 25 0 24 -2 25 -73 25 -41 0 -76 2 -78
4 -2 2 -2 32 -1 65 l4 61 78 0 c71 0 78 2 83 22 3 12 4 25 1 30 -6 10 -231 11
-237 1z"/>
<path d="M1156 883 c-3 -71 -9 -170 -12 -220 l-7 -93 42 0 41 0 0 63 c0 35 3
106 7 157 l6 93 79 -156 78 -157 49 0 48 0 6 58 c4 31 10 130 13 220 l7 162
-37 0 c-27 0 -36 -4 -37 -17 -1 -10 -4 -84 -8 -165 l-6 -148 -84 165 -83 165
-48 0 -47 0 -7 -127z"/>
<path d="M1637 968 c-4 -24 -9 -115 -12 -203 -4 -88 -9 -168 -11 -177 -5 -15
1 -18 35 -18 32 0 41 4 42 18 1 9 4 80 8 157 l6 140 80 -157 80 -158 51 0 51
0 7 138 c3 75 9 174 13 220 l6 82 -36 0 c-20 0 -38 -3 -40 -7 -3 -5 -8 -78
-12 -163 -4 -85 -8 -156 -9 -157 -1 -1 -37 72 -81 162 l-80 164 -46 1 -47 0
-5 -42z"/>
<path d="M2060 980 c0 -30 0 -30 56 -30 l56 0 -6 -137 c-4 -76 -9 -162 -12
-190 l-5 -53 40 0 c48 0 46 -7 58 220 l8 155 58 3 c56 3 57 4 57 32 l0 30
-155 0 -155 0 0 -30z"/>
<path d="M2437 828 c-42 -101 -83 -200 -92 -221 l-16 -38 42 3 c39 3 43 6 58
46 10 24 20 43 24 43 4 -1 45 -1 92 -1 l85 0 12 -45 c12 -44 13 -45 55 -45 24
0 43 4 43 10 0 7 -42 146 -121 398 -10 30 -13 32 -58 32 l-48 0 -76 -182z"/>
<path d="M2936 996 c-52 -19 -86 -45 -113 -86 -67 -97 -53 -253 26 -309 48
-35 141 -47 226 -30 l70 14 5 103 5 102 -42 0 -43 0 0 -80 0 -79 -36 -7 c-47
-9 -104 9 -134 41 -35 37 -41 137 -11 198 31 64 84 91 165 84 33 -3 68 -8 78
-12 12 -5 18 1 23 25 4 17 4 34 1 37 -13 14 -182 13 -220 -1z"/>
<path d="M3661 998 c-195 -21 -376 -193 -398 -377 l-6 -51 449 1 c247 1 438 5
424 9 l-25 8 25 2 c14 1 19 4 12 7 -6 2 -9 10 -5 16 8 14 11 247 2 247 -3 0
-4 18 -3 40 1 24 -3 40 -10 40 -6 1 0 10 13 21 14 11 20 23 15 28 -13 12 -404
19 -493 9z"/>
<path d="M2665 449 c-4 -6 -4 -13 -1 -16 3 -4 0 -13 -7 -22 -9 -12 -11 -57 -7
-189 3 -110 1 -174 -5 -176 -5 -3 -1 -5 10 -6 l20 -1 -20 -9 c-29 -13 637 -12
714 1 35 5 88 21 118 35 65 31 165 121 200 181 28 49 63 152 63 189 l0 24
-539 0 c-372 0 -542 -3 -546 -11z"/>
</g>
</svg>
