<?xml version="1.0" encoding="utf-8"?>
<!-- Generator: Adobe Illustrator 26.0.3, SVG Export Plug-In . SVG Version: 6.00 Build 0)  -->
<svg version="1.0" id="katman_1" xmlns="http://www.w3.org/2000/svg" xmlns:xlink="http://www.w3.org/1999/xlink" x="0px" y="0px"
	 viewBox="0 0 592.8 472.5" style="enable-background:new 0 0 592.8 472.5;" xml:space="preserve">
<path d="M91.5,190.6h21.8v71.5H91.5v-32.7H74.2v32.4H52.3v-70.9h22v29.5h17.1V190.6z M174.8,221.7c4,6.8,4.4,16.7,1.6,24.8
	c-2.8,8-8.5,12-12.2,14c-3.8,2-9.7,3.1-15.5,3.1s-13.2-1.3-18.2-5.2c-5-4-8.4-8.3-9.9-14.2c-1.5-5.9-2.5-16.5,3.8-24.8
	c6.3-8.4,14.2-9.9,17.9-10.5c3.3-0.6,5.4-0.5,5.7-0.5c0,0,7.1-0.4,12.8,1.8C166.6,212.3,170.8,214.9,174.8,221.7L174.8,221.7z
	 M152.2,256.4c2.8-2.4,4-7.2,4.3-10.5c0.2-1.7,0.1-10,0.1-17.1c0-4-0.7-7-1.3-8.6c-1.7-4.2-4.3-6.5-7.7-5.8
	c-1.6,0.3-3.4,1.9-5.1,5.6c-1.7,3.7-1.2,10-1.4,19.2c-0.2,9.1,0.6,12.2,2.7,15.4C146,257.7,149.4,258.7,152.2,256.4L152.2,256.4z
	 M230.2,210.2c-7.3-3.1-14.5-1.3-18.6,0.7c-4.1,2-6.8,6.1-6.9,6.1v-7h-20.5v51.8l20.4,0v-37.3c-0.4-0.4,2.5-3.5,5.2-5
	c2.8-1.5,6.1-0.7,7.3,0.7c1.6,2,1.6,4.2,1.6,5.4v36.1h20.2l0-39.4C238.7,219.8,237.5,213.3,230.2,210.2L230.2,210.2z M297.8,255.6
	c-3.6,3.5-10.1,7-17.3,7.8c-7.2,0.7-17.4,1-25.6-5.9c-4.8-4-7-8.4-8.4-12.4c-1.8-5-2.3-14.6,1.8-22.8c4.1-8.2,14.4-14.7,27.2-14.1
	c12.8,0.7,20.1,5.3,24.6,13.9c3.9,7.3,3.3,16.9,3.2,16.9l-36.8-0.1v10.5c0,0,0.4,2.1,1.2,3.2c0.8,1.1,4.2,5.4,14.1,3.8
	c11.1-1.8,10.8-9.6,11-9.6l8.8,0C301.5,246.9,301.4,252.1,297.8,255.6L297.8,255.6z M279.4,215.9c-2.1-2.2-6-2-8-0.6
	c-1.6,1.2-3.4,3.8-4,7.1c-0.6,3.2-0.5,10-0.5,10h16.1c0-0.1,0-1.8,0-4.7c0-2.9-0.5-5.9-0.8-6.9C282,219.9,281.5,218.1,279.4,215.9
	L279.4,215.9z M485.8,222.1c3.9,7.3,3.3,16.9,3.2,16.9l-36.8-0.1v10.5c0,0,0.4,2.1,1.2,3.2c0.8,1.1,4.2,5.4,14.2,3.8
	c11.1-1.8,10.8-9.7,11-9.7l8.8,0c0,0-0.1,5.2-3.8,8.7c-3.6,3.5-10.1,7-17.3,7.8c-7.2,0.7-17.4,1-25.7-5.9c-4.8-4-7-8.4-8.4-12.4
	c-1.8-5-2.3-14.6,1.8-22.8c4.1-8.2,14.4-14.7,27.2-14.1C473.9,208.9,481.3,213.5,485.8,222.1L485.8,222.1z M451.9,231.5H468
	c0-0.1,0-1.8,0-4.7c0-2.9-0.5-5.9-0.8-6.9c-0.3-0.9-0.7-2.7-2.9-4.9c-2.1-2.2-6-2-8-0.6c-1.6,1.2-3.4,3.8-4,7.1
	C451.8,224.8,451.9,231.5,451.9,231.5L451.9,231.5z M422.8,210l-7.8,28.7l-8.8-28.7h-17.9l-7.9,29.1l-9-29l-28-0.1l-10.1,24.6
	l-9.5-24.6h-22.2l20.7,53c0,0,0,0.5-0.4,2c-0.4,1.5-1.9,5.3-4.4,7.9c-2.5,2.7-5.3,1.9-5.3,1.9s1.1-0.9,1.7-2.4
	c0.7-1.5,0.4-4.2-0.7-6.6c-1.1-2.4-4.3-4.2-9.2-3.3c-4.9,0.9-7.1,5.4-6.6,9.6c0.5,4.2,3.2,7.9,10.1,9.1c6.9,1.2,11.1-1.3,14.9-4.7
	c3.8-3.4,6.9-12,6.9-12l21.5-52.8l15.3,50h17.2l8.3-30.2l9.4,30.2h16.8L432,210L422.8,210L422.8,210z M495.1,261.9h19.6v-71.2h-19.6
	L495.1,261.9L495.1,261.9z M520.8,190.7v71.2h19.6v-71.2L520.8,190.7L520.8,190.7z"/>
</svg>
