<?xml version="1.0" standalone="no"?>
<!DOCTYPE svg PUBLIC "-//W3C//DTD SVG 20010904//EN"
 "http://www.w3.org/TR/2001/REC-SVG-20010904/DTD/svg10.dtd">
<svg version="1.0" xmlns="http://www.w3.org/2000/svg"
 width="225.000000pt" height="225.000000pt" viewBox="0 0 225.000000 225.000000"
 preserveAspectRatio="xMidYMid meet">

<g transform="translate(0.000000,225.000000) scale(0.100000,-0.100000)"
fill="#000000" stroke="none">
<path d="M1576 1170 c-443 -4 -570 -8 -574 -17 -3 -10 115 -13 567 -13 506 0
572 2 578 15 3 9 4 17 2 18 -2 1 -260 0 -573 -3z"/>
<path d="M1741 1101 c-10 -17 -7 -18 34 -13 29 3 45 1 45 -6 0 -6 -13 -48 -30
-94 -16 -45 -30 -83 -30 -85 0 -2 20 -3 44 -3 44 0 45 1 62 48 55 148 47 137
95 137 40 0 58 8 59 28 0 4 -61 7 -135 7 -121 0 -135 -2 -144 -19z"/>
<path d="M955 1029 c-16 -44 -34 -84 -40 -87 -5 -4 -43 -9 -84 -12 -47 -3 -76
-10 -79 -17 -3 -10 24 -13 111 -13 99 0 116 3 131 19 16 17 76 161 76 182 0 5
-19 9 -43 9 l-43 0 -29 -81z"/>
<path d="M1140 1051 c28 -57 29 -61 15 -95 -22 -51 -19 -56 28 -56 43 0 43 1
61 50 15 41 30 58 87 102 63 48 67 53 45 56 -18 2 -42 -10 -78 -37 l-53 -40
-19 39 c-19 38 -22 40 -68 40 l-48 0 30 -59z"/>
<path d="M1412 1097 c-16 -18 -62 -151 -62 -176 0 -20 4 -21 138 -21 75 0 143
4 150 8 13 9 72 162 72 187 0 13 -24 15 -144 15 -105 0 -146 -3 -154 -13z
m203 -16 c7 -12 -42 -143 -58 -153 -17 -11 -105 -10 -112 1 -7 12 42 143 58
153 17 11 105 10 112 -1z"/>
<path d="M2011 1018 c-19 -51 -36 -99 -39 -105 -3 -9 9 -13 41 -13 l44 0 37
96 c20 53 36 100 36 105 0 5 -19 9 -43 9 l-43 0 -33 -92z"/>
<path d="M726 855 c-5 -13 70 -15 651 -13 514 2 657 6 661 16 3 9 -132 12
-651 12 -574 0 -656 -2 -661 -15z"/>
</g>
</svg>
