<?xml version="1.0" standalone="no"?>
<!DOCTYPE svg PUBLIC "-//W3C//DTD SVG 20010904//EN"
 "http://www.w3.org/TR/2001/REC-SVG-20010904/DTD/svg10.dtd">
<svg version="1.0" xmlns="http://www.w3.org/2000/svg"
 width="476.000000pt" height="106.000000pt" viewBox="0 0 476.000000 106.000000"
 preserveAspectRatio="xMidYMid meet">

<g transform="translate(0.000000,106.000000) scale(0.100000,-0.100000)"
fill="#000000" stroke="none">
<path d="M372 1040 c-187 -49 -322 -194 -366 -393 l-7 -28 56 3 57 3 20 59
c62 186 252 293 447 252 89 -19 142 -48 203 -114 50 -53 75 -95 93 -157 12
-40 13 -40 65 -43 l53 -3 -6 46 c-11 77 -64 173 -131 241 -74 73 -138 110
-235 135 -92 24 -155 23 -249 -1z"/>
<path d="M400 825 c-104 -32 -190 -154 -190 -269 0 -245 295 -375 478 -211 71
64 96 126 90 230 -5 88 -15 112 -82 183 -70 74 -187 100 -296 67z"/>
<path d="M1434 730 l-159 -101 -3 96 -3 95 -50 0 -49 0 2 -242 3 -243 48 -3
47 -3 0 105 0 106 133 0 c176 0 177 -1 177 -121 l0 -89 45 0 45 0 0 109 c0
109 0 109 -30 134 -30 26 -97 44 -179 49 l-45 3 132 80 c107 65 132 84 132
102 0 20 -5 23 -43 23 -37 0 -64 -13 -203 -100z"/>
<path d="M1750 622 c0 -237 1 -239 77 -267 37 -14 91 -19 231 -23 l182 -4 0
41 0 41 -162 1 c-99 0 -177 5 -198 12 -33 11 -35 14 -38 65 l-3 52 200 0 201
0 0 40 0 40 -200 0 -201 0 3 63 3 62 198 3 197 2 0 40 0 40 -245 0 -245 0 0
-208z"/>
<path d="M2310 623 c1 -157 4 -212 14 -225 7 -10 35 -28 62 -40 45 -21 64 -22
234 -23 l185 0 3 38 3 37 -163 0 c-90 0 -179 5 -199 10 -33 9 -37 15 -41 48
-9 75 -18 71 201 74 l196 3 0 35 0 35 -197 3 -198 2 0 65 0 65 201 0 200 0 -3
38 -3 37 -247 3 -248 2 0 -207z"/>
<path d="M2982 821 c-88 -15 -136 -113 -99 -203 26 -62 58 -72 248 -78 188 -6
202 -11 197 -69 -4 -51 -30 -61 -168 -61 -114 0 -190 12 -190 30 0 6 -20 10
-45 10 -39 0 -45 -3 -45 -21 0 -29 54 -77 103 -90 24 -6 101 -9 191 -7 168 4
203 14 231 68 18 34 20 104 4 148 -20 59 -45 66 -240 72 -191 5 -209 11 -209
60 0 54 27 65 177 68 125 3 138 2 164 -17 19 -14 43 -21 73 -21 41 0 44 2 39
23 -10 40 -53 75 -105 86 -54 12 -257 13 -326 2z"/>
<path d="M3480 580 l0 -250 50 0 50 0 0 250 0 250 -50 0 -50 0 0 -250z"/>
<path d="M3650 581 l0 -251 50 0 50 0 0 210 0 210 134 0 c74 0 141 -3 150 -6
14 -5 16 -33 16 -210 l0 -204 50 0 50 0 0 208 c0 232 -2 241 -69 270 -27 12
-84 17 -233 20 l-198 4 0 -251z"/>
<path d="M4310 820 c-19 -5 -47 -22 -62 -39 l-28 -31 0 -168 c0 -185 3 -197
63 -230 27 -14 59 -17 207 -17 159 0 178 2 210 21 50 29 60 55 60 167 l0 97
-125 0 -125 0 0 -40 0 -40 75 0 75 0 0 -55 c0 -74 -7 -77 -186 -73 -115 2
-147 6 -154 18 -5 8 -10 77 -10 152 0 111 3 140 16 152 13 13 42 16 160 16
129 0 146 -2 163 -19 11 -11 41 -23 67 -27 l47 -7 -7 34 c-9 46 -45 80 -97 90
-55 10 -302 10 -349 -1z"/>
<path d="M6 463 c57 -240 257 -403 494 -403 227 0 436 162 486 377 l12 53 -59
0 c-52 0 -59 -2 -59 -20 0 -38 -55 -136 -105 -186 -27 -27 -77 -63 -110 -79
-54 -26 -70 -29 -165 -29 -95 -1 -110 2 -161 27 -108 53 -184 141 -210 240
l-13 47 -58 0 -58 0 6 -27z"/>
<path d="M3095 240 c3 -5 19 -10 36 -10 l29 0 0 -85 c0 -69 3 -85 15 -85 12 0
15 16 15 85 l0 85 30 0 c17 0 30 5 30 10 0 6 -34 10 -81 10 -51 0 -78 -4 -74
-10z"/>
<path d="M3550 155 c0 -57 4 -95 10 -95 6 0 10 18 10 41 0 52 15 79 44 79 28
0 36 -16 36 -76 0 -24 5 -44 10 -44 14 0 13 96 -1 122 -9 17 -17 19 -50 14
-38 -6 -39 -6 -39 24 0 16 -4 30 -10 30 -6 0 -10 -38 -10 -95z"/>
<path d="M4030 155 c0 -57 4 -95 10 -95 6 0 10 38 10 95 0 57 -4 95 -10 95 -6
0 -10 -38 -10 -95z"/>
<path d="M4430 240 c0 -5 5 -10 10 -10 6 0 10 5 10 10 0 6 -4 10 -10 10 -5 0
-10 -4 -10 -10z"/>
<path d="M3256 178 c-22 -30 -20 -81 2 -101 23 -21 75 -22 92 -2 19 23 3 31
-20 10 -18 -17 -21 -17 -45 -1 -39 26 -30 36 31 36 53 0 55 1 48 23 -17 58
-79 77 -108 35z m82 -20 c3 -15 -4 -18 -37 -18 -43 0 -50 7 -29 28 18 18 62
11 66 -10z"/>
<path d="M3406 178 c-36 -51 -8 -118 49 -118 24 0 39 7 49 22 22 31 13 34 -24
6 l-32 -23 -19 24 c-21 26 -24 44 -9 72 11 20 54 26 65 9 3 -5 13 -10 22 -10
14 0 14 3 -2 20 -25 28 -79 27 -99 -2z"/>
<path d="M3710 130 c0 -40 4 -70 10 -70 6 0 10 22 10 48 0 53 12 72 46 72 26
0 34 -17 34 -76 0 -24 5 -44 10 -44 17 0 12 107 -6 124 -18 19 -55 21 -72 4
-9 -9 -12 -9 -12 0 0 7 -4 12 -10 12 -6 0 -10 -30 -10 -70z"/>
<path d="M3880 180 c-43 -43 -14 -120 46 -120 50 0 78 32 70 79 -3 20 -13 42
-23 48 -25 19 -70 16 -93 -7z m79 -14 c7 -8 11 -29 9 -47 -6 -64 -81 -55 -81
10 0 47 45 69 72 37z"/>
<path d="M4118 189 c-26 -15 -34 -74 -14 -104 19 -29 70 -34 101 -11 26 19 26
94 -1 113 -21 15 -62 17 -86 2z m70 -21 c7 -7 12 -27 12 -45 0 -26 -5 -36 -22
-42 -31 -11 -48 -3 -59 27 -18 47 36 93 69 60z"/>
<path d="M4278 182 c-52 -58 -9 -140 61 -117 14 4 21 2 21 -7 0 -34 -53 -51
-78 -26 -6 6 -14 9 -17 6 -10 -10 26 -38 48 -38 13 0 33 7 45 16 20 14 22 24
22 97 l0 82 -44 2 c-31 2 -47 -2 -58 -15z m70 -14 c26 -26 11 -88 -22 -88 -29
0 -46 18 -46 50 0 44 40 66 68 38z"/>
<path d="M4430 130 c0 -40 4 -70 10 -70 6 0 10 30 10 70 0 40 -4 70 -10 70 -6
0 -10 -30 -10 -70z"/>
<path d="M4512 184 c-27 -18 -31 -84 -6 -108 20 -20 78 -21 94 -1 19 22 3 31
-19 11 -14 -13 -24 -14 -45 -7 -14 6 -26 17 -26 26 0 11 12 15 50 15 46 0 50
2 50 23 0 49 -55 72 -98 41z m66 -16 c21 -21 13 -28 -28 -28 -43 0 -43 0 -34
24 7 19 45 21 62 4z"/>
<path d="M4650 185 c-21 -25 -7 -49 35 -61 22 -6 41 -18 43 -26 4 -22 -33 -29
-58 -11 -25 18 -38 10 -20 -12 25 -30 100 -16 100 19 0 28 -18 46 -46 46 -23
0 -48 22 -37 33 10 11 51 8 58 -3 12 -20 26 -10 15 10 -13 24 -71 28 -90 5z"/>
</g>
</svg>
