<?xml version="1.0" standalone="no"?>
<!DOCTYPE svg PUBLIC "-//W3C//DTD SVG 20010904//EN"
 "http://www.w3.org/TR/2001/REC-SVG-20010904/DTD/svg10.dtd">
<svg version="1.0" xmlns="http://www.w3.org/2000/svg"
 width="900.000000pt" height="900.000000pt" viewBox="0 0 900.000000 900.000000"
 preserveAspectRatio="xMidYMid meet">

<g transform="translate(0.000000,900.000000) scale(0.100000,-0.100000)"
fill="#000000" stroke="none">
<path d="M2410 5629 c0 -31 180 -169 220 -169 30 0 24 12 -27 55 -90 76 -193
136 -193 114z"/>
<path d="M2127 5613 c-14 -13 -6 -22 55 -60 65 -39 207 -95 221 -86 17 11 -30
45 -127 92 -114 55 -140 64 -149 54z"/>
<path d="M2700 5574 c0 -24 98 -154 116 -154 29 0 14 34 -55 118 -30 36 -61
55 -61 36z"/>
<path d="M1845 5471 c-13 -22 232 -62 289 -47 l29 7 -22 15 c-39 28 -281 48
-296 25z"/>
<path d="M2335 5346 c-65 -47 -165 -148 -165 -166 0 -21 44 1 105 53 93 79
147 136 140 147 -10 16 -17 13 -80 -34z"/>
<path d="M2565 5346 c-70 -35 -159 -100 -163 -120 -3 -15 -1 -15 40 0 24 10
50 23 59 31 8 7 19 13 23 13 15 0 96 61 106 80 15 27 -2 26 -65 -4z"/>
<path d="M2145 5341 c-43 -26 -165 -176 -165 -202 0 -14 27 -11 42 5 48 49 99
108 131 150 52 68 49 83 -8 47z"/>
<path d="M1894 5306 c-97 -44 -225 -138 -210 -153 6 -7 135 47 142 59 3 4 20
14 37 22 48 21 121 98 90 95 -5 0 -31 -11 -59 -23z"/>
<path d="M2970 5314 c-9 -10 -10 -18 -2 -26 12 -12 32 -2 32 17 0 21 -16 26
-30 9z"/>
<path d="M2718 5265 c-68 -45 -85 -62 -74 -72 13 -13 159 75 170 102 10 28
-28 16 -96 -30z"/>
<path d="M2485 5040 c-8 -13 20 -24 42 -16 15 6 15 8 3 16 -20 13 -37 12 -45
0z"/>
<path d="M4414 5016 c-43 -43 -44 -73 -1 -114 40 -39 62 -40 99 -5 40 38 38
85 -3 124 -40 37 -54 36 -95 -5z"/>
<path d="M6322 5032 c-9 -6 -14 -35 -14 -91 -1 -90 11 -120 34 -78 7 14 37 46
66 72 43 39 55 45 67 35 8 -7 15 -23 15 -37 0 -13 7 -40 15 -59 20 -50 53 -44
70 11 18 61 54 125 69 125 8 0 24 -11 35 -25 16 -22 18 -31 9 -56 -7 -22 -7
-38 1 -55 22 -50 48 -12 36 54 -5 31 -2 42 14 57 12 10 21 26 21 37 0 16 -9
18 -79 18 -91 0 -111 -12 -111 -64 0 -18 -3 -36 -6 -39 -13 -12 -41 13 -59 52
-17 39 -20 41 -64 40 -25 -1 -59 2 -76 5 -16 4 -36 3 -43 -2z m58 -57 c0 -8
-7 -15 -15 -15 -16 0 -20 12 -8 23 11 12 23 8 23 -8z"/>
<path d="M6982 5024 c-11 -20 -3 -165 10 -181 12 -15 78 -18 78 -3 0 5 -11 20
-25 34 -21 22 -25 34 -25 89 0 48 -4 66 -15 71 -8 3 -18 -2 -23 -10z"/>
<path d="M7114 5029 c-3 -6 5 -23 19 -37 22 -23 25 -33 20 -74 -4 -31 -1 -53
7 -63 21 -25 30 -7 30 59 0 49 5 68 20 86 16 18 17 25 8 32 -19 12 -96 10
-104 -3z"/>
<path d="M7285 5027 c-17 -13 -19 -25 -17 -94 4 -85 15 -104 61 -102 89 2 143
110 88 174 -28 33 -101 45 -132 22z m103 -59 c10 -22 10 -32 -5 -62 -29 -62
-73 -36 -73 44 0 52 55 65 78 18z"/>
<path d="M6096 5023 c-4 -4 -37 -12 -74 -18 -73 -12 -92 -33 -47 -53 14 -7 30
-23 35 -38 13 -33 13 -588 0 -634 -6 -23 -21 -41 -41 -53 -57 -32 -33 -41 111
-40 142 1 163 8 113 40 -15 9 -31 22 -35 28 -5 5 -8 177 -8 380 0 204 0 376 0
383 0 13 -42 17 -54 5z"/>
<path d="M2440 4989 c0 -5 5 -7 10 -4 6 3 10 8 10 11 0 2 -4 4 -10 4 -5 0 -10
-5 -10 -11z"/>
<path d="M964 4964 c-18 -13 -18 -15 9 -37 34 -29 39 -90 7 -107 -11 -6 -20
-17 -20 -24 0 -7 -11 -23 -25 -36 -14 -13 -25 -28 -25 -33 0 -5 -10 -22 -22
-37 -13 -16 -36 -47 -52 -69 -34 -47 -72 -56 -81 -18 -3 12 -4 79 -2 149 3
134 11 159 58 173 11 4 19 14 19 23 0 15 -15 17 -137 17 -76 -1 -139 -4 -140
-8 -7 -18 -1 -28 22 -39 42 -19 48 -61 46 -327 -2 -335 -1 -331 -77 -377 -11
-7 -16 -15 -12 -19 3 -4 74 -7 157 -8 137 -2 151 0 151 15 0 10 -10 20 -24 24
-52 13 -60 34 -63 173 -3 103 0 131 11 140 23 19 48 5 80 -47 16 -26 47 -76
70 -112 64 -101 65 -102 86 -147 l19 -43 96 -2 c52 -1 103 -2 112 -2 32 -2 25
31 -10 52 -23 13 -61 61 -115 143 -45 68 -99 149 -120 180 -53 76 -57 90 -30
121 27 30 57 68 98 123 40 53 102 115 117 115 6 0 19 8 28 17 16 16 16 17 0
29 -12 9 -25 10 -42 3 -13 -5 -46 -9 -73 -9 -27 0 -60 4 -73 9 -18 7 -30 6
-43 -5z"/>
<path d="M1322 4950 c2 -8 15 -20 29 -27 54 -26 54 -27 54 -297 0 -138 -2
-278 -5 -311 -5 -58 -6 -60 -47 -83 -51 -28 -50 -57 1 -48 49 8 188 10 222 2
22 -5 34 -3 43 8 11 13 7 18 -22 32 -48 23 -59 52 -63 172 -5 99 -4 103 21
128 24 24 30 25 88 19 76 -9 92 -17 112 -55 9 -17 19 -30 23 -30 4 0 7 47 7
105 0 75 -3 105 -12 105 -6 0 -15 -9 -18 -21 -9 -28 -63 -49 -128 -49 -84 0
-91 10 -93 132 -3 159 8 174 132 172 76 -1 132 -31 141 -75 6 -33 28 -56 38
-40 3 6 1 36 -4 67 -6 31 -8 60 -5 65 3 5 3 17 0 27 -5 16 -26 17 -261 17
-221 0 -255 -2 -253 -15z"/>
<path d="M3600 4949 c0 -9 13 -22 30 -29 21 -8 34 -25 46 -56 15 -39 16 -74
10 -306 -4 -145 -11 -275 -17 -289 -6 -14 -26 -34 -46 -43 -24 -11 -33 -20
-26 -27 14 -14 328 -18 427 -6 60 7 88 16 123 39 67 46 78 69 78 164 0 97 -15
125 -86 161 -83 42 -89 62 -31 92 48 25 71 58 78 115 14 99 -22 160 -112 190
-72 24 -474 19 -474 -5z m373 -67 c35 -20 77 -84 77 -118 0 -33 -38 -112 -63
-129 -26 -18 -128 -20 -145 -3 -13 13 -17 202 -6 233 8 21 61 44 87 39 10 -2
33 -11 50 -22z m51 -365 c39 -42 51 -86 42 -150 -12 -81 -84 -128 -172 -114
-62 10 -64 16 -64 158 0 150 1 151 97 146 57 -3 65 -6 97 -40z"/>
<path d="M3390 4916 c0 -8 5 -18 10 -21 6 -3 10 1 10 9 0 8 -4 18 -10 21 -5 3
-10 -1 -10 -9z"/>
<path d="M2273 4876 c-6 -8 -9 -17 -6 -20 7 -7 33 13 33 25 0 13 -13 10 -27
-5z"/>
<path d="M3430 4839 c0 -14 7 -34 15 -45 14 -18 14 -18 15 7 0 14 -7 34 -15
45 -14 18 -14 18 -15 -7z"/>
<path d="M7682 4838 c-5 -7 -12 -22 -16 -34 -8 -26 -71 -77 -120 -98 -49 -20
-46 -47 7 -59 l37 -9 1 -56 c0 -32 0 -110 -1 -174 -1 -136 10 -188 48 -223 36
-34 83 -32 166 5 51 23 66 34 66 51 0 19 -4 20 -48 14 -43 -6 -50 -4 -72 20
-24 26 -25 32 -28 189 -3 128 -1 165 10 174 8 6 41 12 73 14 56 3 60 4 60 28
0 24 -4 25 -60 28 -81 4 -89 13 -81 84 6 53 5 58 -12 58 -11 0 -24 -6 -30 -12z"/>
<path d="M4855 4729 c-66 -27 -108 -68 -140 -141 -25 -55 -27 -69 -23 -157 3
-79 8 -103 27 -136 38 -63 62 -85 120 -111 68 -30 142 -31 213 -3 63 24 89 47
125 108 24 41 28 59 31 153 4 102 3 111 -23 160 -37 73 -73 105 -141 128 -72
25 -125 25 -189 -1z m155 -77 c37 -37 52 -95 53 -207 1 -117 -13 -162 -60
-197 -20 -16 -42 -28 -50 -28 -8 0 -32 17 -54 38 -48 45 -58 81 -59 212 0 117
9 150 52 190 40 37 75 35 118 -8z"/>
<path d="M5438 4735 c-15 -8 -51 -18 -80 -23 -64 -9 -75 -31 -26 -53 32 -14
33 -16 40 -94 9 -87 -1 -597 -11 -613 -3 -5 -23 -17 -44 -26 -70 -29 -42 -39
116 -40 105 -1 147 2 147 10 0 6 -14 17 -30 24 -49 21 -60 45 -60 138 0 117 7
126 84 119 111 -11 192 26 244 113 26 43 27 51 27 180 l0 135 -34 52 c-51 78
-142 105 -213 64 -18 -11 -46 -21 -63 -23 -26 -3 -30 0 -33 25 -4 31 -22 34
-64 12z m216 -104 c10 -9 29 -37 42 -63 32 -64 34 -198 4 -257 -42 -82 -113
-105 -170 -53 l-30 27 -1 140 c-1 77 0 149 0 160 2 31 27 57 63 65 39 9 66 4
92 -19z"/>
<path d="M6463 4728 c-79 -31 -160 -116 -143 -149 26 -47 96 -25 102 33 3 33
43 66 83 67 36 1 76 -40 82 -86 10 -73 1 -86 -74 -115 -37 -14 -79 -29 -93
-33 -14 -4 -37 -18 -52 -30 -15 -13 -32 -25 -38 -27 -18 -6 -29 -78 -21 -126
19 -98 100 -130 184 -74 66 45 73 45 103 7 29 -39 74 -47 110 -20 10 8 27 15
37 15 23 0 72 49 61 60 -5 5 -22 10 -39 12 -48 5 -54 31 -48 197 5 127 3 152
-14 196 -33 89 -127 118 -240 73z m115 -300 c12 -12 16 -87 6 -124 -7 -26 -53
-54 -88 -54 -37 0 -76 41 -76 79 0 34 25 62 80 91 41 22 62 24 78 8z"/>
<path d="M7211 4730 c-30 -11 -62 -27 -71 -35 -10 -9 -30 -17 -46 -18 -24 -2
-30 2 -32 23 -5 37 -16 43 -48 27 -16 -8 -49 -18 -74 -22 -73 -12 -92 -38 -40
-56 42 -15 43 -22 41 -246 l-1 -123 -35 -38 c-19 -22 -32 -42 -28 -46 11 -11
243 -7 243 5 0 6 -14 24 -31 41 l-31 31 4 154 3 155 32 29 c58 51 113 49 150
-8 15 -23 18 -50 18 -184 l0 -158 -29 -30 c-23 -24 -27 -34 -18 -43 9 -9 20
-9 40 -3 15 6 63 7 107 4 44 -3 84 -3 89 2 5 4 -8 23 -28 42 l-36 35 0 168 c1
217 -10 263 -73 293 -51 25 -40 25 -106 1z"/>
<path d="M8103 4727 c-63 -33 -85 -67 -90 -142 -10 -116 12 -146 139 -190 125
-44 159 -87 110 -142 -51 -58 -157 -53 -199 10 -13 18 -23 43 -23 54 0 23 -28
39 -42 25 -5 -5 -4 -21 2 -37 6 -15 9 -42 8 -59 -1 -18 2 -37 6 -44 28 -46
187 -57 264 -18 61 31 76 49 97 118 16 53 16 59 1 106 -9 27 -25 56 -34 64
-18 16 -110 53 -152 62 -32 7 -90 62 -90 84 1 29 43 69 80 75 67 12 101 -3
129 -57 15 -27 31 -47 36 -45 6 2 10 29 10 59 l0 55 -45 23 c-60 30 -149 30
-207 -1z"/>
<path d="M3474 4563 c0 -168 -1 -183 -28 -268 -16 -49 -35 -97 -42 -106 -8 -8
-14 -21 -14 -27 0 -24 -96 -151 -163 -215 -107 -103 -182 -148 -317 -193 -184
-60 -501 -34 -625 52 -11 8 -27 14 -37 14 -10 0 -23 9 -30 20 -7 11 -18 20
-24 20 -11 0 -46 28 -91 72 -12 12 -25 20 -28 17 -5 -6 57 -79 67 -79 4 0 18
-10 32 -22 14 -13 34 -30 44 -38 19 -16 120 -66 187 -94 50 -20 211 -46 287
-46 76 0 246 33 294 58 22 11 49 23 62 26 72 23 244 165 311 257 40 56 114
209 132 274 15 55 20 378 6 428 -17 60 -23 19 -23 -150z"/>
<path d="M4495 4720 c-11 -5 -50 -11 -87 -15 -80 -9 -94 -26 -44 -56 41 -24
46 -46 46 -227 0 -146 -9 -179 -55 -200 -54 -25 -23 -35 110 -35 109 0 130 3
133 16 2 8 -6 18 -17 22 -51 16 -52 22 -50 262 0 124 -3 228 -7 233 -5 4 -18
4 -29 0z"/>
<path d="M2040 3975 c7 -9 15 -13 17 -11 7 7 -7 26 -19 26 -6 0 -6 -6 2 -15z"/>
<path d="M1690 3955 c-10 -12 -90 -14 -553 -14 -316 0 -548 4 -558 10 -10 5
-24 6 -32 3 -18 -6 -30 -45 -18 -57 10 -10 1202 -10 1211 0 11 12 -9 73 -24
73 -7 0 -19 -7 -26 -15z"/>
<path d="M5119 3954 c-10 -12 -116 -14 -748 -13 -480 1 -740 5 -748 11 -7 6
-19 8 -27 5 -15 -6 -28 -55 -15 -62 11 -7 1578 -7 1589 0 12 7 -8 62 -25 69
-7 2 -19 -2 -26 -10z"/>
<path d="M5697 3963 c-11 -21 -15 -60 -7 -73 7 -11 15 -13 37 -5 18 7 486 8
1328 5 715 -3 1306 -3 1313 -1 14 4 16 39 3 60 -8 12 -16 13 -48 3 -29 -9
-374 -12 -1310 -12 -1106 1 -1273 2 -1283 15 -14 16 -26 19 -33 8z"/>
</g>
</svg>
