<?xml version="1.0" standalone="no"?>
<!DOCTYPE svg PUBLIC "-//W3C//DTD SVG 20010904//EN"
 "http://www.w3.org/TR/2001/REC-SVG-20010904/DTD/svg10.dtd">
<svg version="1.0" xmlns="http://www.w3.org/2000/svg"
 width="828.000000pt" height="405.000000pt" viewBox="0 0 828.000000 405.000000"
 preserveAspectRatio="xMidYMid meet">

<g transform="translate(0.000000,405.000000) scale(0.100000,-0.100000)"
fill="#000000" stroke="none">
<path d="M4753 3145 c-142 -40 -321 -173 -439 -326 -196 -255 -228 -528 -70
-600 138 -62 365 35 558 239 241 256 319 576 163 672 -46 29 -141 35 -212 15z"/>
<path d="M1390 1684 c-108 -29 -199 -107 -246 -209 -35 -76 -50 -205 -35 -308
29 -210 165 -340 373 -354 228 -16 392 93 444 297 22 89 15 263 -14 338 -46
119 -142 204 -267 237 -73 19 -182 18 -255 -1z m245 -162 c80 -40 116 -110
123 -238 6 -125 -14 -193 -76 -255 -75 -75 -168 -89 -263 -41 -73 36 -113 97
-129 193 -29 169 32 310 152 356 46 18 145 10 193 -15z"/>
<path d="M6561 1689 c-147 -29 -268 -156 -302 -317 -15 -72 -7 -221 16 -287
39 -115 122 -203 232 -246 48 -19 79 -23 173 -23 135 -1 223 22 321 85 l59 39
0 175 0 175 -190 0 -190 0 0 -75 0 -75 100 0 101 0 -3 -57 -3 -58 -59 -29
c-149 -73 -300 -27 -363 112 -12 27 -17 67 -17 152 -1 108 1 118 27 166 16 29
42 61 58 73 67 50 167 65 236 36 49 -21 71 -41 95 -90 11 -22 21 -41 22 -42 3
-3 168 25 172 29 7 8 -35 102 -63 142 -72 102 -247 150 -422 115z"/>
<path d="M100 1255 l0 -435 90 0 90 0 0 133 1 132 68 72 67 73 119 -205 118
-205 114 0 c89 0 112 3 107 13 -5 6 -82 126 -172 266 l-163 254 108 111 c60
61 133 137 163 169 l54 57 -119 0 -120 0 -170 -187 -170 -186 -3 186 -2 187
-90 0 -90 0 0 -435z"/>
<path d="M2250 1255 l0 -435 80 0 80 0 2 282 3 281 171 -279 172 -279 91 -3
91 -3 0 436 0 435 -85 0 -85 0 -2 -282 -3 -283 -171 280 -170 280 -87 3 -87 3
0 -436z"/>
<path d="M3200 1688 c0 -2 69 -196 154 -433 l154 -430 93 -3 94 -3 156 436
156 436 -95 -3 -95 -3 -96 -295 c-53 -162 -100 -304 -105 -315 -6 -15 -29 40
-92 225 -46 135 -96 278 -110 318 l-26 72 -94 0 c-52 0 -94 -1 -94 -2z"/>
<path d="M4270 1255 l0 -435 330 0 330 0 0 75 0 75 -245 0 -245 0 0 115 0 115
220 0 220 0 0 75 0 75 -220 0 -220 0 0 95 0 95 235 0 235 0 0 75 0 75 -320 0
-320 0 0 -435z"/>
<path d="M5240 1255 l0 -435 85 0 85 0 0 180 0 180 51 0 c97 0 129 -30 284
-268 l60 -92 107 0 107 0 -70 113 c-99 156 -136 205 -182 238 -25 18 -34 30
-26 33 78 23 113 42 148 83 73 82 77 211 12 307 -57 82 -120 96 -432 96 l-229
0 0 -435z m480 263 c45 -31 57 -77 33 -126 -25 -50 -61 -61 -215 -61 l-128 -1
0 105 0 105 139 0 c127 0 141 -2 171 -22z"/>
<path d="M7390 1255 l0 -435 330 0 330 0 0 75 0 75 -245 0 -245 0 0 115 0 115
220 0 220 0 0 75 0 75 -220 0 -220 0 0 95 0 95 235 0 235 0 0 75 0 75 -320 0
-320 0 0 -435z"/>
<path d="M2415 536 c-162 -60 -151 -351 15 -396 88 -24 175 13 206 87 18 42
18 40 -10 45 -20 4 -27 -1 -37 -25 -25 -59 -107 -84 -169 -52 -87 45 -91 234
-6 286 48 29 111 25 145 -9 15 -15 30 -33 32 -41 5 -14 49 -7 49 7 0 16 -41
72 -63 87 -35 23 -114 28 -162 11z"/>
<path d="M3879 540 c-106 -32 -162 -182 -110 -295 90 -194 361 -123 361 95 0
141 -123 239 -251 200z m119 -54 c40 -20 59 -46 72 -94 17 -64 4 -128 -35
-170 -27 -30 -40 -36 -86 -40 -49 -4 -59 -1 -88 24 -111 93 -62 293 72 294 21
0 50 -6 65 -14z"/>
<path d="M4789 540 c-106 -32 -162 -182 -110 -295 90 -194 361 -123 361 95 0
141 -123 239 -251 200z m119 -54 c40 -20 59 -46 72 -94 17 -64 4 -128 -35
-170 -27 -30 -40 -36 -86 -40 -49 -4 -59 -1 -88 24 -111 93 -62 293 72 294 21
0 50 -6 65 -14z"/>
<path d="M5296 536 c-98 -37 -148 -153 -115 -269 34 -124 200 -174 325 -97 34
21 34 22 34 96 l0 74 -85 0 c-84 0 -85 0 -85 -25 0 -24 3 -25 60 -25 l60 0 0
-35 c0 -45 -33 -68 -109 -73 -98 -7 -155 51 -155 158 0 100 55 160 146 160 35
0 54 -6 77 -26 17 -14 31 -32 31 -40 0 -8 10 -14 25 -14 14 0 25 6 25 13 0 20
-38 75 -64 92 -34 23 -123 28 -170 11z"/>
<path d="M6474 539 c-41 -12 -74 -49 -81 -92 -5 -32 -1 -41 28 -70 26 -26 51
-38 107 -52 96 -23 117 -41 113 -97 -2 -28 -58 -51 -113 -46 -51 5 -84 27 -99
66 -5 13 -17 22 -29 22 -34 0 -25 -47 18 -90 64 -64 177 -67 239 -5 66 66 32
159 -68 185 -24 6 -61 16 -81 21 -67 17 -87 60 -48 99 41 41 170 14 170 -36 0
-8 10 -14 26 -14 24 0 25 3 19 28 -18 72 -107 108 -201 81z"/>
<path d="M1410 515 c0 -24 2 -25 70 -25 l70 0 0 -175 0 -175 25 0 25 0 0 175
0 175 65 0 c63 0 65 1 65 25 l0 25 -160 0 -160 0 0 -25z"/>
<path d="M1870 340 l0 -200 145 0 145 0 0 25 0 25 -120 0 -120 0 0 65 0 65
110 0 110 0 0 25 0 25 -110 0 -110 0 0 60 0 60 115 0 115 0 0 25 0 25 -140 0
-140 0 0 -200z"/>
<path d="M2810 340 l0 -200 25 0 c25 0 25 0 25 95 l0 95 105 0 105 0 0 -95 c0
-95 0 -95 25 -95 l25 0 0 200 0 200 -25 0 c-25 0 -25 -1 -25 -80 l0 -80 -105
0 -105 0 0 80 c0 79 0 80 -25 80 l-25 0 0 -200z"/>
<path d="M3290 340 c0 -192 1 -200 20 -200 18 0 20 8 22 156 l3 156 105 -155
c92 -137 108 -156 133 -157 l27 0 0 200 0 200 -25 0 -24 0 -3 -157 -3 -156
-104 156 c-85 129 -108 157 -127 157 l-24 0 0 -200z"/>
<path d="M4280 340 l0 -200 125 0 125 0 0 25 0 25 -100 0 -100 0 0 175 0 175
-25 0 -25 0 0 -200z"/>
<path d="M5710 340 l0 -200 25 0 25 0 0 200 0 200 -25 0 -25 0 0 -200z"/>
<path d="M5940 340 l0 -200 145 0 145 0 0 25 0 25 -120 0 -120 0 0 65 0 65
110 0 110 0 0 25 0 25 -110 0 -110 0 0 60 0 60 115 0 115 0 0 25 0 25 -140 0
-140 0 0 -200z"/>
</g>
</svg>
