<?xml version="1.0" standalone="no"?>
<!DOCTYPE svg PUBLIC "-//W3C//DTD SVG 20010904//EN"
 "http://www.w3.org/TR/2001/REC-SVG-20010904/DTD/svg10.dtd">
<svg version="1.0" xmlns="http://www.w3.org/2000/svg"
 width="309.000000pt" height="163.000000pt" viewBox="0 0 309.000000 163.000000"
 preserveAspectRatio="xMidYMid meet">

<g transform="translate(0.000000,163.000000) scale(0.100000,-0.100000)"
fill="#000000" stroke="none">
<path d="M1538 1623 l-1538 -3 0 -230 0 -230 1540 0 1540 0 0 235 c0 129 -1
234 -2 233 -2 -2 -695 -4 -1540 -5z m807 -79 c40 -13 124 -59 177 -96 14 -10
24 -7 60 19 125 89 232 113 283 63 l25 -26 -67 -1 c-38 0 -83 -7 -103 -16 -41
-18 -120 -74 -120 -85 0 -13 89 -61 151 -82 103 -35 172 -2 199 94 7 25 16 46
20 46 10 0 30 -56 30 -82 0 -35 -38 -94 -80 -123 -83 -57 -196 -44 -340 39
l-73 43 -55 -34 c-169 -101 -302 -102 -370 -2 -20 28 -23 44 -20 91 9 132 139
202 283 152z"/>
<path d="M2167 1460 c-24 -15 -47 -63 -47 -98 0 -49 56 -92 120 -92 44 0 131
36 170 70 34 29 35 30 15 46 -74 59 -216 100 -258 74z"/>
<path d="M1300 1085 c0 -4 39 -63 86 -131 l86 -125 -74 -112 c-41 -62 -83
-124 -92 -139 l-18 -28 78 1 79 0 51 81 52 81 53 -81 54 -82 88 0 87 0 -91
136 c-50 75 -88 142 -85 149 3 8 41 68 86 135 l80 120 -82 0 -83 -1 -40 -66
c-22 -37 -45 -68 -50 -69 -6 -2 -28 27 -51 64 l-40 67 -87 3 c-48 1 -87 0 -87
-3z"/>
<path d="M2185 1071 c-78 -36 -130 -119 -141 -228 -8 -75 17 -175 54 -223 76
-95 258 -117 364 -45 83 56 122 225 82 351 -22 71 -83 137 -140 153 -62 17
-173 13 -219 -8z m187 -111 c36 -39 52 -101 45 -177 -10 -100 -38 -141 -105
-150 -31 -4 -44 0 -70 22 -85 71 -77 291 12 331 43 19 86 10 118 -26z"/>
<path d="M0 815 l0 -265 60 0 60 0 2 213 3 212 69 -212 70 -213 60 0 61 0 70
213 70 212 3 -212 2 -213 60 0 60 0 0 265 0 265 -107 0 -108 0 -50 -165 c-27
-91 -52 -165 -55 -165 -3 0 -28 73 -55 163 l-51 162 -112 3 -112 3 0 -266z"/>
<path d="M886 1071 c-3 -5 -49 -118 -102 -252 -53 -134 -98 -250 -101 -257 -4
-10 10 -12 62 -10 l67 3 17 45 17 45 115 3 115 3 18 -51 18 -50 75 0 c67 0 74
2 69 18 -4 9 -53 128 -109 265 l-101 247 -78 0 c-42 0 -79 -4 -82 -9z m112
-214 l40 -107 -78 0 -78 0 36 110 c20 60 37 108 39 107 1 -1 20 -51 41 -110z"/>
<path d="M1860 815 l0 -265 70 0 70 0 0 265 0 265 -70 0 -70 0 0 -265z"/>
<path d="M2590 815 l0 -265 65 0 65 0 0 178 0 177 93 -177 92 -178 88 0 87 0
0 228 c0 125 3 244 6 265 l7 37 -64 0 -64 0 3 -170 c2 -93 -1 -170 -5 -170 -4
0 -46 75 -93 168 l-85 167 -97 3 -98 3 0 -266z"/>
<path d="M0 410 l0 -30 1540 0 1540 0 0 30 0 30 -1540 0 -1540 0 0 -30z"/>
<path d="M2923 269 c-46 -13 -68 -50 -57 -92 8 -28 17 -34 74 -53 50 -16 66
-26 68 -42 5 -33 -45 -42 -69 -14 -11 14 -29 22 -48 22 -38 0 -40 -18 -7 -57
21 -24 31 -28 83 -28 68 0 109 21 119 61 13 52 -18 83 -111 111 -20 6 -30 15
-30 28 0 25 37 32 55 10 16 -19 80 -21 80 -2 0 43 -92 76 -157 56z"/>
<path d="M1574 140 l20 -130 46 0 45 0 19 88 c10 48 22 91 26 95 4 5 16 -34
27 -85 l19 -93 45 -3 46 -3 16 98 c9 54 19 113 23 131 6 31 5 32 -24 32 -35 0
-38 -5 -48 -102 -3 -38 -9 -68 -13 -68 -4 0 -14 37 -22 83 l-14 82 -47 3 -46
3 -17 -78 c-10 -43 -21 -82 -25 -86 -4 -5 -11 30 -15 77 l-7 86 -37 0 -37 0
20 -130z"/>
<path d="M1928 140 l-3 -130 38 0 37 0 0 55 0 55 45 0 45 0 0 -55 0 -55 35 0
35 0 0 130 0 130 -35 0 -35 0 0 -50 0 -50 -45 0 -45 0 0 50 0 50 -34 0 -35 0
-3 -130z"/>
<path d="M2200 140 l0 -130 100 0 100 0 0 25 c0 24 -2 25 -65 25 l-65 0 0 30
0 30 60 0 c57 0 60 1 60 25 0 24 -3 25 -60 25 l-60 0 0 30 0 30 65 0 c58 0 65
2 65 20 0 19 -7 20 -100 20 l-100 0 0 -130z"/>
<path d="M2430 140 l0 -130 100 0 100 0 0 25 c0 24 -2 25 -65 25 l-65 0 0 30
0 30 60 0 c57 0 60 1 60 25 0 24 -3 25 -60 25 l-60 0 0 30 0 30 65 0 c58 0 65
2 65 20 0 19 -7 20 -100 20 l-100 0 0 -130z"/>
<path d="M2660 140 l0 -130 95 0 c95 0 95 0 95 25 0 24 -3 25 -60 25 l-60 0 0
105 0 105 -35 0 -35 0 0 -130z"/>
</g>
</svg>
