<?xml version="1.0" standalone="no"?>
<!DOCTYPE svg PUBLIC "-//W3C//DTD SVG 20010904//EN"
 "http://www.w3.org/TR/2001/REC-SVG-20010904/DTD/svg10.dtd">
<svg version="1.0" xmlns="http://www.w3.org/2000/svg"
 width="200.000000pt" height="200.000000pt" viewBox="0 0 200.000000 200.000000"
 preserveAspectRatio="xMidYMid meet">

<g transform="translate(0.000000,200.000000) scale(0.100000,-0.100000)"
fill="#000000" stroke="none">
<path d="M75 1195 c-14 -13 -25 -33 -25 -43 0 -19 39 -62 57 -62 19 0 42 -35
34 -49 -7 -10 -20 -12 -50 -7 -32 5 -41 3 -41 -9 0 -36 73 -46 114 -14 48 38
25 102 -45 124 -11 4 -19 15 -19 27 0 18 5 20 40 15 44 -6 56 14 21 33 -32 16
-60 12 -86 -15z"/>
<path d="M382 1205 c-64 -28 -80 -131 -29 -183 28 -28 89 -39 130 -23 26 10
28 14 25 63 l-3 53 -43 3 c-37 3 -43 1 -40 -14 2 -10 12 -21 23 -24 12 -3 20
-14 20 -25 0 -15 -8 -21 -32 -23 -38 -4 -63 26 -63 75 0 60 51 88 114 63 22
-8 26 -7 26 9 0 12 -11 23 -31 30 -41 14 -57 13 -97 -4z"/>
<path d="M232 1103 c3 -100 4 -108 23 -108 19 0 20 8 23 108 l3 107 -26 0 -26
0 3 -107z"/>
<path d="M562 1103 c2 -88 6 -108 18 -108 12 0 16 18 20 79 l5 79 40 -77 c38
-72 62 -95 85 -81 6 3 10 51 10 111 0 97 -1 104 -20 104 -18 0 -20 -7 -20 -72
l-1 -73 -37 70 c-33 63 -40 70 -70 73 l-33 3 3 -108z"/>
<path d="M876 1194 c-5 -14 -4 -15 9 -4 8 7 22 10 30 6 8 -3 15 -1 15 4 0 17
-47 11 -54 -6z"/>
<path d="M1051 1191 c-12 -12 -21 -31 -20 -43 1 -18 3 -16 10 10 5 17 14 32
20 32 6 0 7 -5 3 -12 -4 -7 -3 -8 5 -4 6 4 9 11 7 15 -3 4 10 7 29 7 19 0 31
-4 29 -8 -3 -4 0 -8 6 -8 7 0 10 6 8 13 -8 22 -75 20 -97 -2z"/>
<path d="M1224 1195 c-18 -15 -18 -15 0 -8 15 5 17 3 11 -8 -6 -11 -5 -12 6
-1 7 6 21 12 30 12 10 0 21 5 24 10 10 16 -49 12 -71 -5z"/>
<path d="M1398 1203 c7 -3 16 -2 19 1 4 3 -2 6 -13 5 -11 0 -14 -3 -6 -6z"/>
<path d="M1521 1188 c0 -22 1 -22 8 -3 l8 20 5 -20 c5 -18 6 -18 7 3 1 13 -5
22 -14 22 -9 0 -15 -9 -14 -22z"/>
<path d="M1625 1199 c-4 -6 -4 -13 -1 -16 3 -4 6 -1 6 6 0 9 8 11 25 7 14 -4
25 -2 25 4 0 13 -47 13 -55 -1z"/>
<path d="M1826 1202 c-2 -4 -7 -25 -10 -47 l-5 -40 11 43 11 44 54 -4 c29 -2
53 0 53 5 0 9 -107 9 -114 -1z"/>
<path d="M1690 1186 c0 -2 7 -7 16 -10 8 -3 12 -2 9 4 -6 10 -25 14 -25 6z"/>
<path d="M1381 1164 c0 -11 3 -14 6 -6 3 7 2 16 -1 19 -3 4 -6 -2 -5 -13z"/>
<path d="M1401 1164 c0 -11 3 -14 6 -6 3 7 2 16 -1 19 -3 4 -6 -2 -5 -13z"/>
<path d="M1634 1165 c-3 -8 -4 -20 -2 -27 3 -7 7 -1 10 15 6 29 1 36 -8 12z"/>
<path d="M1737 1150 c-4 -16 -11 -30 -16 -30 -6 0 -8 8 -5 18 4 13 2 12 -7 -3
-22 -34 -20 -46 7 -28 23 14 42 58 32 69 -3 2 -8 -9 -11 -26z"/>
<path d="M868 1152 c3 -10 1 -13 -6 -8 -8 5 -10 1 -5 -10 4 -11 3 -15 -5 -10
-7 4 -18 -7 -27 -26 -11 -23 -12 -28 -2 -16 8 10 17 15 20 12 3 -3 15 12 26
33 15 30 16 40 6 40 -7 0 -11 -7 -7 -15z"/>
<path d="M1203 1146 c1 -19 10 -34 27 -44 l25 -14 -22 18 c-12 11 -24 30 -26
44 -4 21 -5 21 -4 -4z"/>
<path d="M1611 1154 c0 -11 3 -14 6 -6 3 7 2 16 -1 19 -3 4 -6 -2 -5 -13z"/>
<path d="M912 1130 c0 -19 2 -27 5 -17 2 9 2 25 0 35 -3 9 -5 1 -5 -18z"/>
<path d="M1050 1152 c0 -6 19 -25 43 -43 23 -18 31 -22 17 -8 -14 13 -33 32
-42 43 -10 10 -18 14 -18 8z"/>
<path d="M1511 1144 c0 -11 3 -14 6 -6 3 7 2 16 -1 19 -3 4 -6 -2 -5 -13z"/>
<path d="M1531 1144 c0 -11 3 -14 6 -6 3 7 2 16 -1 19 -3 4 -6 -2 -5 -13z"/>
<path d="M932 1130 c0 -14 2 -19 5 -12 2 6 2 18 0 25 -3 6 -5 1 -5 -13z"/>
<path d="M1831 1143 c-3 -29 12 -43 45 -43 19 0 34 5 34 10 0 6 -15 10 -34 10
-24 0 -36 5 -39 18 -3 9 -5 12 -6 5z"/>
<path d="M1257 1114 c17 -16 34 -40 36 -54 4 -21 5 -21 4 4 -2 20 -12 36 -37
54 l-35 25 32 -29z"/>
<path d="M1371 1124 c0 -11 3 -14 6 -6 3 7 2 16 -1 19 -3 4 -6 -2 -5 -13z"/>
<path d="M1392 1120 c0 -14 2 -19 5 -12 2 6 2 18 0 25 -3 6 -5 1 -5 -13z"/>
<path d="M1040 1116 c0 -3 9 -10 20 -16 11 -6 20 -8 20 -6 0 3 -9 10 -20 16
-11 6 -20 8 -20 6z"/>
<path d="M1493 1073 c-10 -34 -10 -36 3 -19 11 16 14 17 14 4 0 -21 -26 -42
-41 -32 -8 5 -9 3 -4 -6 5 -9 2 -10 -12 -6 -11 4 -31 2 -44 -3 -21 -9 -19 -10
18 -10 50 -1 89 29 98 74 4 23 3 25 -4 10 -8 -19 -9 -19 -12 3 -3 20 -6 18
-16 -15z"/>
<path d="M1601 1094 c0 -11 3 -14 6 -6 3 7 2 16 -1 19 -3 4 -6 -2 -5 -13z"/>
<path d="M1626 1088 c-9 -12 -16 -32 -15 -43 0 -13 4 -9 10 13 11 36 41 44 58
15 6 -10 11 -13 11 -6 0 6 -5 15 -10 18 -6 4 -8 11 -5 16 13 20 -35 8 -49 -13z"/>
<path d="M942 1075 c0 -16 2 -22 5 -12 2 9 2 23 0 30 -3 6 -5 -1 -5 -18z"/>
<path d="M1796 1064 c-4 -20 -5 -38 -3 -40 3 -3 8 11 11 32 4 20 5 38 3 40 -3
3 -8 -11 -11 -32z"/>
<path d="M1362 1060 c0 -19 2 -27 5 -17 2 9 2 25 0 35 -3 9 -5 1 -5 -18z"/>
<path d="M1821 1074 c0 -11 3 -14 6 -6 3 7 2 16 -1 19 -3 4 -6 -2 -5 -13z"/>
<path d="M1381 1064 c0 -11 3 -14 6 -6 3 7 2 16 -1 19 -3 4 -6 -2 -5 -13z"/>
<path d="M841 1061 c-9 -6 3 -10 37 -12 39 -3 48 -1 40 9 -12 14 -56 16 -77 3z"/>
<path d="M1096 1050 c-5 -14 -8 -29 -7 -33 1 -5 -6 -6 -16 -3 -60 17 -76 19
-71 5 11 -35 129 -13 128 24 0 6 -5 4 -11 -5 -5 -10 -15 -18 -21 -18 -7 0 -6
5 2 15 6 8 10 20 8 27 -3 7 -8 1 -12 -12z"/>
<path d="M1591 1054 c0 -11 3 -14 6 -6 3 7 2 16 -1 19 -3 4 -6 -2 -5 -13z"/>
<path d="M1711 1044 c0 -11 3 -14 6 -6 3 7 2 16 -1 19 -3 4 -6 -2 -5 -13z"/>
<path d="M780 1020 c-8 -16 -8 -20 4 -20 8 0 18 5 22 12 5 7 3 8 -6 3 -10 -6
-12 -4 -7 8 9 24 0 21 -13 -3z"/>
<path d="M1259 1033 c-1 -5 -1 -10 -1 -13 0 -3 -17 -5 -38 -5 -21 0 -36 3 -34
7 3 5 0 8 -6 8 -7 0 -10 -6 -8 -12 7 -19 80 -22 103 -3 19 14 19 15 1 8 -13
-4 -17 -3 -12 5 4 7 5 12 2 12 -3 0 -7 -3 -7 -7z"/>
<path d="M1691 1023 c-1 -17 5 -23 19 -23 11 0 20 4 20 10 0 5 -6 7 -14 4 -8
-3 -16 2 -19 13 -4 14 -5 14 -6 -4z"/>
<path d="M940 1010 c-13 -8 -12 -10 3 -10 9 0 17 5 17 10 0 12 -1 12 -20 0z"/>
<path d="M1815 1009 c-35 -5 -32 -6 23 -8 34 0 62 2 62 7 0 9 -31 9 -85 1z"/>
<path d="M1588 1003 c7 -3 16 -2 19 1 4 3 -2 6 -13 5 -11 0 -14 -3 -6 -6z"/>
<path d="M60 940 c0 -7 322 -10 945 -10 623 0 945 3 945 10 0 7 -322 10 -945
10 -623 0 -945 -3 -945 -10z"/>
<path d="M949 873 c-11 -30 -6 -100 8 -114 5 -5 9 25 9 66 0 41 -1 75 -3 75
-2 0 -8 -12 -14 -27z"/>
<path d="M1543 861 c8 -28 8 -50 0 -75 -12 -38 -1 -49 17 -17 13 25 13 72 0
105 -15 41 -28 30 -17 -13z"/>
<path d="M62 878 c-18 -18 -14 -34 13 -52 28 -19 24 -40 -6 -31 -11 4 -19 2
-19 -5 0 -7 13 -10 33 -8 44 4 50 40 10 62 -28 15 -28 16 -5 22 12 3 22 10 22
15 0 13 -34 11 -48 -3z"/>
<path d="M160 835 l0 -55 33 1 c29 0 30 1 10 9 -27 11 -30 37 -5 43 16 4 16 5
0 6 -25 1 -23 31 2 31 11 0 20 5 20 10 0 6 -13 10 -30 10 -30 0 -30 -1 -30
-55z"/>
<path d="M267 883 c-11 -10 -8 -103 3 -103 6 0 10 9 10 20 0 26 14 25 33 -2
17 -26 34 -19 19 8 -7 12 -7 25 0 37 6 13 6 23 -3 33 -12 14 -51 19 -62 7z
m43 -28 c0 -8 -7 -15 -15 -15 -8 0 -15 7 -15 15 0 8 7 15 15 15 8 0 15 -7 15
-15z"/>
<path d="M370 884 c0 -3 7 -28 16 -55 12 -35 21 -49 32 -47 19 4 55 95 41 104
-9 5 -29 -36 -29 -62 0 -8 -4 -14 -10 -14 -5 0 -10 7 -10 15 0 20 -22 65 -32
65 -4 0 -8 -3 -8 -6z"/>
<path d="M500 835 c0 -30 5 -55 10 -55 6 0 10 25 10 55 0 30 -4 55 -10 55 -5
0 -10 -25 -10 -55z"/>
<path d="M574 865 c-26 -39 -9 -79 34 -83 18 -2 32 1 32 7 0 6 -10 10 -22 8
-20 -2 -23 3 -23 33 0 30 3 35 23 34 28 -1 23 20 -6 24 -14 2 -27 -6 -38 -23z"/>
<path d="M680 835 l0 -55 33 1 c29 0 30 1 10 9 -13 5 -23 16 -23 24 0 8 10 17
23 19 l22 4 -22 2 c-28 1 -31 31 -3 31 11 0 20 5 20 10 0 6 -13 10 -30 10 -30
0 -30 -1 -30 -55z"/>
<path d="M793 883 c-20 -7 -15 -41 7 -55 11 -7 20 -19 20 -26 0 -9 -7 -11 -20
-7 -11 4 -20 2 -20 -4 0 -6 13 -11 29 -11 41 0 49 29 17 57 -31 27 -32 33 -5
33 11 0 17 5 14 10 -7 11 -22 12 -42 3z"/>
<path d="M1020 835 c0 -30 5 -55 10 -55 6 0 10 25 10 55 0 30 -4 55 -10 55 -5
0 -10 -25 -10 -55z"/>
<path d="M1087 883 c-11 -10 -8 -103 2 -103 6 0 11 17 13 38 l3 37 20 -37 c28
-56 45 -49 45 18 0 34 -4 53 -10 49 -5 -3 -10 -18 -10 -33 l0 -27 -21 33 c-21
32 -30 38 -42 25z"/>
<path d="M1220 835 c0 -54 0 -55 29 -55 36 0 61 23 61 55 0 27 -34 55 -67 55
-21 0 -23 -4 -23 -55z m60 16 c13 -26 3 -51 -21 -51 -15 0 -19 7 -19 35 0 39
22 48 40 16z"/>
<path d="M1350 836 c0 -31 5 -56 10 -56 6 0 10 22 10 49 0 28 -4 53 -10 56 -6
4 -10 -15 -10 -49z"/>
<path d="M1435 878 c-33 -90 -34 -98 -20 -98 8 0 15 5 15 10 0 14 33 13 48 -2
21 -21 23 -2 5 47 -18 49 -39 68 -48 43z m29 -43 c3 -9 0 -15 -9 -15 -8 0 -15
7 -15 15 0 8 4 15 9 15 5 0 11 -7 15 -15z"/>
<path d="M1670 835 l0 -55 33 1 c29 0 30 1 10 9 -19 8 -23 17 -23 55 0 25 -4
45 -10 45 -5 0 -10 -25 -10 -55z"/>
<path d="M1755 880 c-3 -5 1 -10 9 -10 12 0 16 -11 16 -45 0 -25 5 -45 10 -45
6 0 10 18 10 40 0 27 5 43 15 46 8 4 15 10 15 15 0 12 -67 11 -75 -1z"/>
<path d="M1870 835 l0 -55 35 0 c36 0 55 20 55 59 0 24 -36 51 -67 51 -21 0
-23 -4 -23 -55z m58 18 c10 -20 5 -44 -12 -55 -17 -11 -26 1 -26 38 0 37 22
47 38 17z"/>
</g>
</svg>
