<?xml version="1.0" standalone="no"?>
<!DOCTYPE svg PUBLIC "-//W3C//DTD SVG 20010904//EN"
 "http://www.w3.org/TR/2001/REC-SVG-20010904/DTD/svg10.dtd">
<svg version="1.0" xmlns="http://www.w3.org/2000/svg"
 width="225.000000pt" height="225.000000pt" viewBox="0 0 225.000000 225.000000"
 preserveAspectRatio="xMidYMid meet">

<g transform="translate(0.000000,225.000000) scale(0.100000,-0.100000)"
fill="#000000" stroke="none">
<path d="M357 1313 c-4 -3 -7 -46 -7 -95 l0 -88 145 0 145 0 0 -75 0 -76 -97
3 -98 3 -3 43 -3 42 -70 0 -70 0 3 -67 3 -68 238 -3 237 -2 0 120 0 119 -142
3 -143 3 -3 48 -3 47 50 0 c44 0 51 -3 51 -20 0 -24 29 -33 91 -28 l44 3 3 48
3 47 -184 0 c-101 0 -187 -3 -190 -7z"/>
<path d="M867 1314 c-4 -4 -7 -35 -7 -70 0 -46 4 -63 15 -68 21 -8 21 -92 0
-100 -13 -5 -15 -20 -13 -73 l3 -68 80 0 80 0 5 68 5 68 70 -71 69 -70 93 0
93 0 0 70 0 70 -68 0 -68 0 -52 53 -52 53 23 22 c19 18 35 22 88 22 81 0 91 7
87 56 l-3 39 -69 3 -70 3 -72 -72 -73 -73 -3 70 -3 69 -75 3 c-42 1 -79 0 -83
-4z"/>
<path d="M1447 1314 c-4 -4 -7 -35 -7 -70 0 -46 4 -63 15 -68 21 -8 21 -92 -1
-104 -12 -6 -14 -23 -12 -73 l3 -64 80 0 80 0 3 64 c2 50 -1 66 -14 75 -9 7
-15 21 -13 32 5 26 66 32 83 9 9 -12 25 -15 71 -13 l60 3 0 45 0 45 -60 3
c-46 2 -62 -1 -71 -13 -8 -11 -23 -15 -46 -13 -32 3 -33 5 -36 51 l-3 47 90 0
c85 0 90 -1 93 -22 3 -22 7 -23 93 -23 l90 0 0 45 0 45 -246 3 c-135 1 -248
-1 -252 -4z"/>
<path d="M1906 983 c-6 -14 -5 -15 5 -6 7 7 10 15 7 18 -3 3 -9 -2 -12 -12z"/>
</g>
</svg>
